<svg width="420" height="420" viewBox="0 0 420 420" fill="none" xmlns="http://www.w3.org/2000/svg">
<path d="M24 136C24 122.745 34.7452 112 48 112V112C61.2548 112 72 122.745 72 136V136C72 149.255 61.2548 160 48 160V160C34.7452 160 24 149.255 24 136V136Z" fill="black"/>
<path d="M41.6517 137.534H40.1277L39.8037 138.5H38.9577L40.4037 134.54H41.3937L42.8397 138.5H41.9817L41.6517 137.534ZM41.4477 136.922L41.0757 135.806L40.8957 135.206H40.8837L40.7157 135.794L40.3317 136.922H41.4477ZM45.1311 135.44C45.4551 135.44 45.7151 135.534 45.9111 135.722C46.1111 135.91 46.2111 136.18 46.2111 136.532V138.5H45.3891V136.772C45.3891 136.316 45.2111 136.088 44.8551 136.088C44.6631 136.088 44.4991 136.156 44.3631 136.292C44.2311 136.428 44.1651 136.636 44.1651 136.916V138.5H43.3431V135.5H44.0811L44.1051 136.034C44.2051 135.838 44.3431 135.69 44.5191 135.59C44.6951 135.49 44.8991 135.44 45.1311 135.44ZM49.0925 138.314C48.9965 138.39 48.8745 138.45 48.7265 138.494C48.5825 138.538 48.4305 138.56 48.2705 138.56C47.6025 138.56 47.2685 138.258 47.2685 137.654V136.112H46.7225V135.5H47.2685V134.81L48.0905 134.582V135.5H49.0625V136.112H48.0905V137.522C48.0905 137.798 48.2285 137.936 48.5045 137.936C48.6805 137.936 48.8345 137.88 48.9665 137.768L49.0925 138.314ZM50.4168 137.546C50.4168 137.69 50.4368 137.79 50.4768 137.846C50.5208 137.902 50.5988 137.93 50.7108 137.93C50.7788 137.93 50.8368 137.926 50.8848 137.918C50.9368 137.906 50.9968 137.888 51.0648 137.864L50.9928 138.434C50.9288 138.474 50.8448 138.504 50.7408 138.524C50.6368 138.548 50.5348 138.56 50.4348 138.56C50.1428 138.56 49.9288 138.49 49.7928 138.35C49.6608 138.206 49.5948 137.978 49.5948 137.666V134.186H50.4168V137.546ZM54.3248 136.988C54.3248 137.1 54.3168 137.208 54.3008 137.312H52.1768C52.2608 137.736 52.5108 137.948 52.9268 137.948C53.0988 137.948 53.2408 137.916 53.3528 137.852C53.4648 137.788 53.5428 137.696 53.5868 137.576L54.2588 137.822C54.1628 138.062 54.0008 138.246 53.7728 138.374C53.5488 138.498 53.2668 138.56 52.9268 138.56C52.4308 138.56 52.0468 138.424 51.7748 138.152C51.5028 137.876 51.3668 137.492 51.3668 137C51.3668 136.508 51.4988 136.126 51.7628 135.854C52.0268 135.578 52.3988 135.44 52.8788 135.44C53.3428 135.44 53.6988 135.574 53.9468 135.842C54.1988 136.11 54.3248 136.492 54.3248 136.988ZM52.8728 136.046C52.6728 136.046 52.5128 136.104 52.3928 136.22C52.2768 136.336 52.2028 136.508 52.1708 136.736H53.5688C53.5368 136.512 53.4608 136.342 53.3408 136.226C53.2208 136.106 53.0648 136.046 52.8728 136.046ZM56.713 135.44C56.853 135.44 56.961 135.462 57.037 135.506L56.935 136.226C56.843 136.166 56.717 136.136 56.557 136.136C56.361 136.136 56.191 136.208 56.047 136.352C55.907 136.492 55.837 136.69 55.837 136.946V138.5H55.015V135.5H55.729L55.783 136.088C55.947 135.656 56.257 135.44 56.713 135.44Z" fill="#F9FAFB"/>
<g>
<path d="M157 235C157 231.284 157 229.426 157.246 227.871C158.602 219.313 165.313 212.602 173.871 211.246C175.426 211 177.284 211 181 211V211C184.716 211 186.574 211 188.129 211.246C196.687 212.602 203.398 219.313 204.754 227.871C205 229.426 205 231.284 205 235V235C205 238.716 205 240.574 204.754 242.129C203.398 250.687 196.687 257.398 188.129 258.754C186.574 259 184.716 259 181 259V259C177.284 259 175.426 259 173.871 258.754C165.313 257.398 158.602 250.687 157.246 242.129C157 240.574 157 238.716 157 235V235Z" fill="#F3F4F6"/>
<path d="M178.333 230.218V236.5H176.515L176.461 235.078C175.741 236.146 174.571 236.68 172.951 236.68C171.859 236.68 170.899 236.44 170.071 235.96C169.243 235.48 168.595 234.784 168.127 233.872C167.671 232.948 167.443 231.85 167.443 230.578C167.443 229.318 167.677 228.226 168.145 227.302C168.625 226.378 169.297 225.67 170.161 225.178C171.037 224.686 172.057 224.44 173.221 224.44C174.505 224.44 175.549 224.674 176.353 225.142C177.169 225.61 177.811 226.348 178.279 227.356L175.993 228.346C175.813 227.734 175.483 227.272 175.003 226.96C174.535 226.636 173.965 226.474 173.293 226.474C172.261 226.474 171.457 226.828 170.881 227.536C170.305 228.244 170.017 229.252 170.017 230.56C170.017 231.916 170.299 232.942 170.863 233.638C171.427 234.334 172.255 234.682 173.347 234.682C174.187 234.682 174.871 234.484 175.399 234.088C175.927 233.68 176.191 233.092 176.191 232.324V232.054H172.717V230.218H178.333ZM193.969 236.5H191.737V230.308L191.845 226.834H191.809L188.515 236.5H186.481L183.205 226.834H183.169L183.295 230.308V236.5H181.045V224.62H184.645L186.787 231.1L187.543 233.782H187.579L188.353 231.118L190.477 224.62H193.969V236.5Z" fill="#1F2937"/>
<path d="M178.796 245.486C178.672 245.822 178.468 246.086 178.184 246.278C177.9 246.466 177.572 246.56 177.2 246.56C176.828 246.56 176.504 246.478 176.228 246.314C175.952 246.146 175.738 245.91 175.586 245.606C175.438 245.298 175.364 244.936 175.364 244.52C175.364 244.108 175.438 243.748 175.586 243.44C175.738 243.132 175.952 242.896 176.228 242.732C176.504 242.564 176.824 242.48 177.188 242.48C177.568 242.48 177.886 242.558 178.142 242.714C178.402 242.87 178.596 243.1 178.724 243.404L178.25 243.626C178.162 243.394 178.034 243.22 177.866 243.104C177.698 242.988 177.484 242.93 177.224 242.93C176.952 242.93 176.714 242.994 176.51 243.122C176.306 243.246 176.148 243.428 176.036 243.668C175.924 243.908 175.868 244.192 175.868 244.52C175.868 245.016 175.986 245.406 176.222 245.69C176.462 245.97 176.788 246.11 177.2 246.11C177.468 246.11 177.7 246.042 177.896 245.906C178.092 245.77 178.232 245.57 178.316 245.306L178.796 245.486ZM182.501 242.99H181.121V246.5H180.641V242.99H179.261V242.54H182.501V242.99ZM184.8 242.48C185.172 242.48 185.496 242.564 185.772 242.732C186.048 242.896 186.26 243.132 186.408 243.44C186.56 243.744 186.636 244.104 186.636 244.52C186.636 244.936 186.56 245.298 186.408 245.606C186.26 245.91 186.048 246.146 185.772 246.314C185.496 246.478 185.172 246.56 184.8 246.56C184.428 246.56 184.104 246.478 183.828 246.314C183.552 246.146 183.338 245.91 183.186 245.606C183.038 245.298 182.964 244.936 182.964 244.52C182.964 244.104 183.038 243.744 183.186 243.44C183.338 243.132 183.552 242.896 183.828 242.732C184.104 242.564 184.428 242.48 184.8 242.48ZM184.8 242.93C184.388 242.93 184.062 243.072 183.822 243.356C183.586 243.636 183.468 244.024 183.468 244.52C183.468 245.016 183.586 245.406 183.822 245.69C184.062 245.97 184.388 246.11 184.8 246.11C185.212 246.11 185.536 245.97 185.772 245.69C186.012 245.406 186.132 245.016 186.132 244.52C186.132 244.024 186.012 243.636 185.772 243.356C185.536 243.072 185.212 242.93 184.8 242.93Z" fill="#1F2937"/>
</g>
<g>
<path d="M212 235C212 231.284 212 229.426 212.246 227.871C213.602 219.313 220.313 212.602 228.871 211.246C230.426 211 232.284 211 236 211V211C239.716 211 241.574 211 243.129 211.246C251.687 212.602 258.398 219.313 259.754 227.871C260 229.426 260 231.284 260 235V235C260 238.716 260 240.574 259.754 242.129C258.398 250.687 251.687 257.398 243.129 258.754C241.574 259 239.716 259 236 259V259C232.284 259 230.426 259 228.871 258.754C220.313 257.398 213.602 250.687 212.246 242.129C212 240.574 212 238.716 212 235V235Z" fill="#F3F4F6"/>
<path d="M235.232 230.218V236.5H233.414L233.36 235.078C232.64 236.146 231.47 236.68 229.85 236.68C228.758 236.68 227.798 236.44 226.97 235.96C226.142 235.48 225.494 234.784 225.026 233.872C224.57 232.948 224.342 231.85 224.342 230.578C224.342 229.318 224.576 228.226 225.044 227.302C225.524 226.378 226.196 225.67 227.06 225.178C227.936 224.686 228.956 224.44 230.12 224.44C231.404 224.44 232.448 224.674 233.252 225.142C234.068 225.61 234.71 226.348 235.178 227.356L232.892 228.346C232.712 227.734 232.382 227.272 231.902 226.96C231.434 226.636 230.864 226.474 230.192 226.474C229.16 226.474 228.356 226.828 227.78 227.536C227.204 228.244 226.916 229.252 226.916 230.56C226.916 231.916 227.198 232.942 227.762 233.638C228.326 234.334 229.154 234.682 230.246 234.682C231.086 234.682 231.77 234.484 232.298 234.088C232.826 233.68 233.09 233.092 233.09 232.324V232.054H229.616V230.218H235.232ZM242.12 231.064L240.428 232.99V236.5H237.944V224.62H240.428V230.254L245.306 224.62H248.186L243.92 229.462L248.33 236.5H245.486L242.12 231.064Z" fill="#1F2937"/>
<path d="M233.67 245.486C233.546 245.822 233.342 246.086 233.058 246.278C232.774 246.466 232.446 246.56 232.074 246.56C231.702 246.56 231.378 246.478 231.102 246.314C230.826 246.146 230.612 245.91 230.46 245.606C230.312 245.298 230.238 244.936 230.238 244.52C230.238 244.108 230.312 243.748 230.46 243.44C230.612 243.132 230.826 242.896 231.102 242.732C231.378 242.564 231.698 242.48 232.062 242.48C232.442 242.48 232.76 242.558 233.016 242.714C233.276 242.87 233.47 243.1 233.598 243.404L233.124 243.626C233.036 243.394 232.908 243.22 232.74 243.104C232.572 242.988 232.358 242.93 232.098 242.93C231.826 242.93 231.588 242.994 231.384 243.122C231.18 243.246 231.022 243.428 230.91 243.668C230.798 243.908 230.742 244.192 230.742 244.52C230.742 245.016 230.86 245.406 231.096 245.69C231.336 245.97 231.662 246.11 232.074 246.11C232.342 246.11 232.574 246.042 232.77 245.906C232.966 245.77 233.106 245.57 233.19 245.306L233.67 245.486ZM237.459 246.05V246.5H234.591V242.54H237.369V242.99H235.071V244.268H236.859V244.718H235.071V246.05H237.459ZM239.926 242.48C240.298 242.48 240.622 242.564 240.898 242.732C241.174 242.896 241.386 243.132 241.534 243.44C241.686 243.744 241.762 244.104 241.762 244.52C241.762 244.936 241.686 245.298 241.534 245.606C241.386 245.91 241.174 246.146 240.898 246.314C240.622 246.478 240.298 246.56 239.926 246.56C239.554 246.56 239.23 246.478 238.954 246.314C238.678 246.146 238.464 245.91 238.312 245.606C238.164 245.298 238.09 244.936 238.09 244.52C238.09 244.104 238.164 243.744 238.312 243.44C238.464 243.132 238.678 242.896 238.954 242.732C239.23 242.564 239.554 242.48 239.926 242.48ZM239.926 242.93C239.514 242.93 239.188 243.072 238.948 243.356C238.712 243.636 238.594 244.024 238.594 244.52C238.594 245.016 238.712 245.406 238.948 245.69C239.188 245.97 239.514 246.11 239.926 246.11C240.338 246.11 240.662 245.97 240.898 245.69C241.138 245.406 241.258 245.016 241.258 244.52C241.258 244.024 241.138 243.636 240.898 243.356C240.662 243.072 240.338 242.93 239.926 242.93Z" fill="#1F2937"/>
</g>
<g>
<path d="M185 199C185 195.284 185 193.426 185.246 191.871C186.602 183.313 193.313 176.602 201.871 175.246C203.426 175 205.284 175 209 175V175C212.716 175 214.574 175 216.129 175.246C224.687 176.602 231.398 183.313 232.754 191.871C233 193.426 233 195.284 233 199V199C233 202.716 233 204.574 232.754 206.129C231.398 214.687 224.687 221.398 216.129 222.754C214.574 223 212.716 223 209 223V223C205.284 223 203.426 223 201.871 222.754C193.313 221.398 186.602 214.687 185.246 206.129C185 204.574 185 202.716 185 199V199Z" fill="#F3F4F6"/>
<path d="M209.418 200.5H207.186V194.308L207.294 190.834H207.258L203.964 200.5H201.93L198.654 190.834H198.618L198.744 194.308V200.5H196.494V188.62H200.094L202.236 195.1L202.992 197.782H203.028L203.802 195.118L205.926 188.62H209.418V200.5ZM212.508 188.62H217.71C219.126 188.62 220.182 188.902 220.878 189.466C221.574 190.018 221.922 190.816 221.922 191.86C221.922 192.52 221.724 193.096 221.328 193.588C220.932 194.068 220.374 194.368 219.654 194.488V194.506C220.47 194.626 221.1 194.938 221.544 195.442C222 195.934 222.228 196.534 222.228 197.242C222.228 198.274 221.856 199.078 221.112 199.654C220.368 200.218 219.294 200.5 217.89 200.5H212.508V188.62ZM217.368 193.606C218.688 193.606 219.348 193.096 219.348 192.076C219.348 191.056 218.688 190.546 217.368 190.546H214.92V193.606H217.368ZM217.674 198.628C218.334 198.628 218.826 198.496 219.15 198.232C219.486 197.956 219.654 197.566 219.654 197.062C219.654 196.558 219.486 196.174 219.15 195.91C218.826 195.646 218.334 195.514 217.674 195.514H214.92V198.628H217.674Z" fill="#1F2937"/>
<path d="M206.368 209.486C206.244 209.822 206.04 210.086 205.756 210.278C205.472 210.466 205.144 210.56 204.772 210.56C204.4 210.56 204.076 210.478 203.8 210.314C203.524 210.146 203.31 209.91 203.158 209.606C203.01 209.298 202.936 208.936 202.936 208.52C202.936 208.108 203.01 207.748 203.158 207.44C203.31 207.132 203.524 206.896 203.8 206.732C204.076 206.564 204.396 206.48 204.76 206.48C205.14 206.48 205.458 206.558 205.714 206.714C205.974 206.87 206.168 207.1 206.296 207.404L205.822 207.626C205.734 207.394 205.606 207.22 205.438 207.104C205.27 206.988 205.056 206.93 204.796 206.93C204.524 206.93 204.286 206.994 204.082 207.122C203.878 207.246 203.72 207.428 203.608 207.668C203.496 207.908 203.44 208.192 203.44 208.52C203.44 209.016 203.558 209.406 203.794 209.69C204.034 209.97 204.36 210.11 204.772 210.11C205.04 210.11 205.272 210.042 205.468 209.906C205.664 209.77 205.804 209.57 205.888 209.306L206.368 209.486ZM210.512 208.502V210.5H210.152L210.134 209.966C210.018 210.158 209.854 210.306 209.642 210.41C209.434 210.51 209.182 210.56 208.886 210.56C208.514 210.56 208.19 210.478 207.914 210.314C207.638 210.146 207.424 209.91 207.272 209.606C207.124 209.298 207.05 208.936 207.05 208.52C207.05 208.108 207.126 207.748 207.278 207.44C207.434 207.132 207.65 206.896 207.926 206.732C208.206 206.564 208.53 206.48 208.898 206.48C209.29 206.48 209.612 206.554 209.864 206.702C210.12 206.85 210.326 207.078 210.482 207.386L210.044 207.626C209.956 207.402 209.812 207.23 209.612 207.11C209.416 206.99 209.178 206.93 208.898 206.93C208.63 206.93 208.394 206.994 208.19 207.122C207.99 207.25 207.834 207.434 207.722 207.674C207.61 207.91 207.554 208.192 207.554 208.52C207.554 209.024 207.67 209.416 207.902 209.696C208.134 209.972 208.468 210.11 208.904 210.11C209.248 210.11 209.528 210.022 209.744 209.846C209.964 209.67 210.074 209.418 210.074 209.09V208.952H208.814V208.502H210.512ZM213.227 206.48C213.599 206.48 213.923 206.564 214.199 206.732C214.475 206.896 214.687 207.132 214.835 207.44C214.987 207.744 215.063 208.104 215.063 208.52C215.063 208.936 214.987 209.298 214.835 209.606C214.687 209.91 214.475 210.146 214.199 210.314C213.923 210.478 213.599 210.56 213.227 210.56C212.855 210.56 212.531 210.478 212.255 210.314C211.979 210.146 211.765 209.91 211.613 209.606C211.465 209.298 211.391 208.936 211.391 208.52C211.391 208.104 211.465 207.744 211.613 207.44C211.765 207.132 211.979 206.896 212.255 206.732C212.531 206.564 212.855 206.48 213.227 206.48ZM213.227 206.93C212.815 206.93 212.489 207.072 212.249 207.356C212.013 207.636 211.895 208.024 211.895 208.52C211.895 209.016 212.013 209.406 212.249 209.69C212.489 209.97 212.815 210.11 213.227 210.11C213.639 210.11 213.963 209.97 214.199 209.69C214.439 209.406 214.559 209.016 214.559 208.52C214.559 208.024 214.439 207.636 214.199 207.356C213.963 207.072 213.639 206.93 213.227 206.93Z" fill="#1F2937"/>
</g>
<path d="M183.452 168.616H181.228L180.724 170H179.844L181.836 164.72H182.86L184.852 170H183.948L183.452 168.616ZM183.196 167.92L182.588 166.224L182.348 165.464H182.324L182.1 166.208L181.476 167.92H183.196ZM187.994 169.736C187.866 169.843 187.709 169.928 187.522 169.992C187.341 170.051 187.144 170.08 186.93 170.08C186.562 170.08 186.266 169.989 186.042 169.808C185.824 169.621 185.712 169.333 185.706 168.944V166.672H184.946V166H185.706V165.064L186.562 164.824V166H187.962V166.672H186.562V168.8C186.562 168.992 186.613 169.136 186.714 169.232C186.821 169.323 186.965 169.368 187.146 169.368C187.392 169.368 187.608 169.283 187.794 169.112L187.994 169.736ZM189.225 165.328C189.044 165.328 188.902 165.283 188.801 165.192C188.7 165.096 188.649 164.963 188.649 164.792C188.649 164.621 188.7 164.491 188.801 164.4C188.902 164.309 189.044 164.264 189.225 164.264C189.406 164.264 189.545 164.309 189.641 164.4C189.742 164.491 189.793 164.621 189.793 164.792C189.793 164.963 189.742 165.096 189.641 165.192C189.545 165.283 189.406 165.328 189.225 165.328ZM189.649 170H188.793V166H189.649V170ZM194.612 166V170H193.852L193.82 169.352C193.548 169.837 193.074 170.08 192.396 170.08C191.964 170.08 191.615 169.963 191.348 169.728C191.087 169.488 190.956 169.123 190.956 168.632V166H191.812V168.408C191.812 168.76 191.882 169.011 192.02 169.16C192.159 169.304 192.364 169.376 192.636 169.376C192.962 169.376 193.228 169.275 193.436 169.072C193.65 168.864 193.756 168.56 193.756 168.16V166H194.612ZM200.765 165.92C201.032 165.92 201.277 165.976 201.501 166.088C201.725 166.195 201.904 166.36 202.037 166.584C202.171 166.808 202.237 167.083 202.237 167.408V170H201.381V167.544C201.381 167.229 201.307 166.997 201.157 166.848C201.008 166.699 200.808 166.624 200.557 166.624C200.264 166.624 200.016 166.731 199.813 166.944C199.616 167.157 199.517 167.451 199.517 167.824V170H198.661V167.544C198.661 167.229 198.587 166.997 198.437 166.848C198.288 166.699 198.088 166.624 197.837 166.624C197.667 166.624 197.501 166.669 197.341 166.76C197.181 166.845 197.051 166.981 196.949 167.168C196.848 167.355 196.797 167.589 196.797 167.872V170H195.941V166H196.701L196.741 166.664C196.875 166.419 197.056 166.235 197.285 166.112C197.515 165.984 197.765 165.92 198.037 165.92C198.336 165.92 198.605 165.989 198.845 166.128C199.091 166.261 199.272 166.459 199.389 166.72C199.512 166.459 199.699 166.261 199.949 166.128C200.205 165.989 200.477 165.92 200.765 165.92ZM207.148 166H208.444V166.672H207.172V170H206.316V166.672H205.564V166H206.316V165.424C206.316 165.019 206.438 164.704 206.684 164.48C206.929 164.256 207.273 164.144 207.716 164.144C207.876 164.144 208.022 164.163 208.156 164.2C208.289 164.232 208.393 164.277 208.468 164.336L208.308 164.96C208.185 164.88 208.033 164.84 207.852 164.84C207.382 164.84 207.148 165.056 207.148 165.488V166ZM210.889 165.92C211.513 165.92 212.001 166.104 212.353 166.472C212.705 166.84 212.881 167.349 212.881 168C212.881 168.651 212.705 169.16 212.353 169.528C212.001 169.896 211.513 170.08 210.889 170.08C210.265 170.08 209.777 169.896 209.425 169.528C209.073 169.16 208.897 168.651 208.897 168C208.897 167.349 209.073 166.84 209.425 166.472C209.777 166.104 210.265 165.92 210.889 165.92ZM210.889 166.592C210.526 166.592 210.246 166.715 210.049 166.96C209.857 167.2 209.761 167.547 209.761 168C209.761 168.453 209.857 168.803 210.049 169.048C210.246 169.288 210.526 169.408 210.889 169.408C211.252 169.408 211.532 169.285 211.729 169.04C211.926 168.795 212.025 168.448 212.025 168C212.025 167.552 211.926 167.205 211.729 166.96C211.532 166.715 211.252 166.592 210.889 166.592ZM217.604 166V170H216.844L216.812 169.352C216.54 169.837 216.066 170.08 215.388 170.08C214.956 170.08 214.607 169.963 214.34 169.728C214.079 169.488 213.948 169.123 213.948 168.632V166H214.804V168.408C214.804 168.76 214.874 169.011 215.012 169.16C215.151 169.304 215.356 169.376 215.628 169.376C215.954 169.376 216.22 169.275 216.428 169.072C216.642 168.864 216.748 168.56 216.748 168.16V166H217.604ZM221.086 165.92C221.528 165.92 221.888 166.048 222.166 166.304C222.448 166.56 222.59 166.928 222.59 167.408V170H221.734V167.68C221.734 166.976 221.448 166.624 220.878 166.624C220.579 166.624 220.323 166.728 220.11 166.936C219.896 167.139 219.79 167.453 219.79 167.88V170H218.934V166H219.694L219.734 166.664C219.867 166.413 220.051 166.227 220.286 166.104C220.52 165.981 220.787 165.92 221.086 165.92ZM227.591 164.2V170H226.839L226.791 169.288C226.673 169.528 226.495 169.72 226.255 169.864C226.02 170.008 225.751 170.08 225.447 170.08C224.897 170.08 224.463 169.899 224.143 169.536C223.828 169.168 223.671 168.659 223.671 168.008C223.671 167.357 223.828 166.848 224.143 166.48C224.463 166.107 224.897 165.92 225.447 165.92C225.74 165.92 225.999 165.987 226.223 166.12C226.447 166.248 226.617 166.424 226.735 166.648V164.2H227.591ZM225.639 169.392C225.975 169.392 226.241 169.272 226.439 169.032C226.636 168.792 226.735 168.464 226.735 168.048V167.952C226.735 167.536 226.636 167.211 226.439 166.976C226.241 166.736 225.975 166.616 225.639 166.616C225.292 166.616 225.02 166.739 224.823 166.984C224.631 167.224 224.535 167.563 224.535 168C224.535 168.437 224.631 168.779 224.823 169.024C225.02 169.269 225.292 169.392 225.639 169.392ZM232.494 167.88C232.494 168.035 232.483 168.181 232.462 168.32H229.534C229.582 168.672 229.707 168.941 229.91 169.128C230.113 169.309 230.374 169.4 230.694 169.4C230.955 169.4 231.171 169.355 231.342 169.264C231.518 169.168 231.638 169.032 231.702 168.856L232.414 169.152C232.115 169.771 231.542 170.08 230.694 170.08C230.065 170.08 229.571 169.896 229.214 169.528C228.862 169.16 228.686 168.651 228.686 168C228.686 167.344 228.857 166.835 229.198 166.472C229.539 166.104 230.019 165.92 230.638 165.92C231.225 165.92 231.681 166.099 232.006 166.456C232.331 166.813 232.494 167.288 232.494 167.88ZM230.638 166.6C230.329 166.6 230.078 166.691 229.886 166.872C229.699 167.053 229.582 167.317 229.534 167.664H231.694C231.651 167.328 231.537 167.067 231.35 166.88C231.169 166.693 230.931 166.6 230.638 166.6ZM235.63 165.92C235.817 165.92 235.964 165.947 236.07 166L235.934 166.784C235.812 166.715 235.644 166.68 235.43 166.68C235.26 166.68 235.097 166.725 234.942 166.816C234.793 166.907 234.668 167.043 234.566 167.224C234.47 167.405 234.422 167.624 234.422 167.88V170H233.566V166H234.294L234.366 166.72C234.59 166.187 235.012 165.92 235.63 165.92ZM238.194 170.08C237.789 170.08 237.429 170.011 237.114 169.872C236.805 169.733 236.57 169.523 236.41 169.24L236.986 168.744C237.087 168.973 237.245 169.141 237.458 169.248C237.671 169.355 237.927 169.408 238.226 169.408C238.498 169.408 238.709 169.365 238.858 169.28C239.007 169.189 239.082 169.072 239.082 168.928C239.082 168.8 239.013 168.699 238.874 168.624C238.735 168.544 238.495 168.469 238.154 168.4C237.562 168.288 237.146 168.139 236.906 167.952C236.666 167.765 236.546 167.501 236.546 167.16C236.546 166.941 236.613 166.739 236.746 166.552C236.879 166.36 237.071 166.208 237.322 166.096C237.578 165.979 237.879 165.92 238.226 165.92C238.669 165.92 239.023 165.995 239.29 166.144C239.557 166.288 239.762 166.515 239.906 166.824L239.298 167.272C239.202 167.037 239.066 166.867 238.89 166.76C238.719 166.648 238.501 166.592 238.234 166.592C237.994 166.592 237.794 166.643 237.634 166.744C237.479 166.84 237.402 166.952 237.402 167.08C237.402 167.224 237.471 167.339 237.61 167.424C237.754 167.509 238.013 167.587 238.386 167.656C238.951 167.757 239.351 167.901 239.586 168.088C239.821 168.275 239.938 168.536 239.938 168.872C239.938 169.229 239.783 169.52 239.474 169.744C239.165 169.968 238.738 170.08 238.194 170.08Z" fill="white"/>
<path d="M182.465 106.6C182.305 107.075 182.03 107.44 181.641 107.696C181.257 107.952 180.803 108.08 180.281 108.08C179.774 108.08 179.334 107.971 178.961 107.752C178.587 107.533 178.299 107.219 178.097 106.808C177.894 106.397 177.793 105.915 177.793 105.36C177.793 104.805 177.894 104.323 178.097 103.912C178.299 103.501 178.587 103.187 178.961 102.968C179.334 102.749 179.771 102.64 180.273 102.64C180.801 102.64 181.243 102.749 181.601 102.968C181.963 103.187 182.225 103.509 182.385 103.936L181.577 104.296C181.47 103.981 181.315 103.752 181.113 103.608C180.91 103.459 180.646 103.384 180.321 103.384C179.825 103.384 179.427 103.56 179.129 103.912C178.835 104.259 178.689 104.741 178.689 105.36C178.689 105.984 178.83 106.469 179.113 106.816C179.395 107.163 179.787 107.336 180.289 107.336C180.63 107.336 180.915 107.251 181.145 107.08C181.379 106.909 181.547 106.659 181.649 106.328L182.465 106.6ZM185.197 103.92C185.821 103.92 186.309 104.104 186.661 104.472C187.013 104.84 187.189 105.349 187.189 106C187.189 106.651 187.013 107.16 186.661 107.528C186.309 107.896 185.821 108.08 185.197 108.08C184.573 108.08 184.085 107.896 183.733 107.528C183.381 107.16 183.205 106.651 183.205 106C183.205 105.349 183.381 104.84 183.733 104.472C184.085 104.104 184.573 103.92 185.197 103.92ZM185.197 104.592C184.835 104.592 184.555 104.715 184.357 104.96C184.165 105.2 184.069 105.547 184.069 106C184.069 106.453 184.165 106.803 184.357 107.048C184.555 107.288 184.835 107.408 185.197 107.408C185.56 107.408 185.84 107.285 186.037 107.04C186.235 106.795 186.333 106.448 186.333 106C186.333 105.552 186.235 105.205 186.037 104.96C185.84 104.715 185.56 104.592 185.197 104.592ZM189.121 106.832C189.121 107.029 189.15 107.168 189.209 107.248C189.268 107.323 189.377 107.36 189.537 107.36C189.638 107.36 189.724 107.355 189.793 107.344C189.868 107.328 189.958 107.299 190.065 107.256L189.969 107.944C189.788 108.035 189.566 108.08 189.305 108.08C188.948 108.08 188.684 107.989 188.513 107.808C188.348 107.627 188.265 107.341 188.265 106.952V102.2H189.121V106.832ZM191.613 106.832C191.613 107.029 191.643 107.168 191.701 107.248C191.76 107.323 191.869 107.36 192.029 107.36C192.131 107.36 192.216 107.355 192.285 107.344C192.36 107.328 192.451 107.299 192.557 107.256L192.461 107.944C192.28 108.035 192.059 108.08 191.797 108.08C191.44 108.08 191.176 107.989 191.005 107.808C190.84 107.627 190.757 107.341 190.757 106.952V102.2H191.613V106.832ZM196.737 107.44C196.855 107.44 196.953 107.429 197.033 107.408L196.977 107.984C196.833 108.048 196.668 108.08 196.481 108.08C196.252 108.08 196.068 108.035 195.929 107.944C195.796 107.853 195.708 107.701 195.665 107.488C195.543 107.675 195.361 107.821 195.121 107.928C194.881 108.029 194.612 108.08 194.313 108.08C193.924 108.08 193.609 107.989 193.369 107.808C193.129 107.627 193.009 107.368 193.009 107.032C193.009 106.717 193.14 106.453 193.401 106.24C193.663 106.021 194.052 105.867 194.569 105.776L195.585 105.6V105.384C195.585 105.139 195.513 104.947 195.369 104.808C195.225 104.664 195.025 104.592 194.769 104.592C194.241 104.592 193.897 104.832 193.737 105.312L193.073 104.96C193.169 104.64 193.364 104.387 193.657 104.2C193.956 104.013 194.321 103.92 194.753 103.92C195.271 103.92 195.681 104.04 195.985 104.28C196.289 104.52 196.441 104.872 196.441 105.336V107.144C196.441 107.245 196.463 107.32 196.505 107.368C196.553 107.416 196.631 107.44 196.737 107.44ZM194.497 107.432C194.785 107.432 195.039 107.363 195.257 107.224C195.476 107.085 195.585 106.901 195.585 106.672V106.192L194.713 106.368C194.436 106.421 194.231 106.496 194.097 106.592C193.964 106.688 193.897 106.816 193.897 106.976C193.897 107.125 193.948 107.24 194.049 107.32C194.156 107.395 194.305 107.432 194.497 107.432ZM199.996 103.92C200.545 103.92 200.977 104.107 201.292 104.48C201.606 104.848 201.764 105.357 201.764 106.008C201.764 106.659 201.606 107.168 201.292 107.536C200.977 107.899 200.545 108.08 199.996 108.08C199.681 108.08 199.404 108.005 199.164 107.856C198.929 107.707 198.753 107.507 198.636 107.256L198.596 108H197.844V102.2H198.7V104.64C198.822 104.416 198.996 104.24 199.22 104.112C199.449 103.984 199.708 103.92 199.996 103.92ZM199.804 107.392C200.15 107.392 200.42 107.269 200.612 107.024C200.809 106.779 200.908 106.437 200.908 106C200.908 105.563 200.809 105.224 200.612 104.984C200.42 104.739 200.15 104.616 199.804 104.616C199.478 104.616 199.217 104.725 199.02 104.944C198.828 105.163 198.721 105.464 198.7 105.848V106.152C198.721 106.541 198.828 106.845 199.02 107.064C199.217 107.283 199.478 107.392 199.804 107.392ZM204.635 103.92C205.259 103.92 205.747 104.104 206.099 104.472C206.451 104.84 206.627 105.349 206.627 106C206.627 106.651 206.451 107.16 206.099 107.528C205.747 107.896 205.259 108.08 204.635 108.08C204.011 108.08 203.523 107.896 203.171 107.528C202.819 107.16 202.643 106.651 202.643 106C202.643 105.349 202.819 104.84 203.171 104.472C203.523 104.104 204.011 103.92 204.635 103.92ZM204.635 104.592C204.272 104.592 203.992 104.715 203.795 104.96C203.603 105.2 203.507 105.547 203.507 106C203.507 106.453 203.603 106.803 203.795 107.048C203.992 107.288 204.272 107.408 204.635 107.408C204.998 107.408 205.278 107.285 205.475 107.04C205.672 106.795 205.771 106.448 205.771 106C205.771 105.552 205.672 105.205 205.475 104.96C205.278 104.715 204.998 104.592 204.635 104.592ZM209.791 103.92C209.977 103.92 210.124 103.947 210.231 104L210.095 104.784C209.972 104.715 209.804 104.68 209.591 104.68C209.42 104.68 209.257 104.725 209.103 104.816C208.953 104.907 208.828 105.043 208.727 105.224C208.631 105.405 208.583 105.624 208.583 105.88V108H207.727V104H208.455L208.527 104.72C208.751 104.187 209.172 103.92 209.791 103.92ZM214.409 107.44C214.526 107.44 214.625 107.429 214.705 107.408L214.649 107.984C214.505 108.048 214.34 108.08 214.153 108.08C213.924 108.08 213.74 108.035 213.601 107.944C213.468 107.853 213.38 107.701 213.337 107.488C213.214 107.675 213.033 107.821 212.793 107.928C212.553 108.029 212.284 108.08 211.985 108.08C211.596 108.08 211.281 107.989 211.041 107.808C210.801 107.627 210.681 107.368 210.681 107.032C210.681 106.717 210.812 106.453 211.073 106.24C211.334 106.021 211.724 105.867 212.241 105.776L213.257 105.6V105.384C213.257 105.139 213.185 104.947 213.041 104.808C212.897 104.664 212.697 104.592 212.441 104.592C211.913 104.592 211.569 104.832 211.409 105.312L210.745 104.96C210.841 104.64 211.036 104.387 211.329 104.2C211.628 104.013 211.993 103.92 212.425 103.92C212.942 103.92 213.353 104.04 213.657 104.28C213.961 104.52 214.113 104.872 214.113 105.336V107.144C214.113 107.245 214.134 107.32 214.177 107.368C214.225 107.416 214.302 107.44 214.409 107.44ZM212.169 107.432C212.457 107.432 212.71 107.363 212.929 107.224C213.148 107.085 213.257 106.901 213.257 106.672V106.192L212.385 106.368C212.108 106.421 211.902 106.496 211.769 106.592C211.636 106.688 211.569 106.816 211.569 106.976C211.569 107.125 211.62 107.24 211.721 107.32C211.828 107.395 211.977 107.432 212.169 107.432ZM217.951 107.736C217.823 107.843 217.666 107.928 217.479 107.992C217.298 108.051 217.101 108.08 216.887 108.08C216.519 108.08 216.223 107.989 215.999 107.808C215.781 107.621 215.669 107.333 215.663 106.944V104.672H214.903V104H215.663V103.064L216.519 102.824V104H217.919V104.672H216.519V106.8C216.519 106.992 216.57 107.136 216.671 107.232C216.778 107.323 216.922 107.368 217.103 107.368C217.349 107.368 217.565 107.283 217.751 107.112L217.951 107.736ZM222.326 105.88C222.326 106.035 222.315 106.181 222.294 106.32H219.366C219.414 106.672 219.539 106.941 219.742 107.128C219.945 107.309 220.206 107.4 220.526 107.4C220.787 107.4 221.003 107.355 221.174 107.264C221.35 107.168 221.47 107.032 221.534 106.856L222.246 107.152C221.947 107.771 221.374 108.08 220.526 108.08C219.897 108.08 219.403 107.896 219.046 107.528C218.694 107.16 218.518 106.651 218.518 106C218.518 105.344 218.689 104.835 219.03 104.472C219.371 104.104 219.851 103.92 220.47 103.92C221.057 103.92 221.513 104.099 221.838 104.456C222.163 104.813 222.326 105.288 222.326 105.88ZM220.47 104.6C220.161 104.6 219.91 104.691 219.718 104.872C219.531 105.053 219.414 105.317 219.366 105.664H221.526C221.483 105.328 221.369 105.067 221.182 104.88C221.001 104.693 220.763 104.6 220.47 104.6ZM231.9 104L230.564 108H229.628L228.62 104.976L227.66 108H226.724L225.388 104H226.316L227.22 107.2L228.22 104H229.068L230.06 107.2L230.972 104H231.9ZM233.221 103.328C233.04 103.328 232.898 103.283 232.797 103.192C232.696 103.096 232.645 102.963 232.645 102.792C232.645 102.621 232.696 102.491 232.797 102.4C232.898 102.309 233.04 102.264 233.221 102.264C233.402 102.264 233.541 102.309 233.637 102.4C233.738 102.491 233.789 102.621 233.789 102.792C233.789 102.963 233.738 103.096 233.637 103.192C233.541 103.283 233.402 103.328 233.221 103.328ZM233.645 108H232.789V104H233.645V108ZM237.576 107.736C237.448 107.843 237.291 107.928 237.104 107.992C236.923 108.051 236.726 108.08 236.512 108.08C236.144 108.08 235.848 107.989 235.624 107.808C235.406 107.621 235.294 107.333 235.288 106.944V104.672H234.528V104H235.288V103.064L236.144 102.824V104H237.544V104.672H236.144V106.8C236.144 106.992 236.195 107.136 236.296 107.232C236.403 107.323 236.547 107.368 236.728 107.368C236.974 107.368 237.19 107.283 237.376 107.112L237.576 107.736ZM240.558 103.92C241.001 103.92 241.361 104.048 241.638 104.304C241.921 104.56 242.062 104.928 242.062 105.408V108H241.206V105.68C241.206 104.976 240.921 104.624 240.35 104.624C240.052 104.624 239.796 104.728 239.582 104.936C239.369 105.144 239.262 105.461 239.262 105.888V108H238.406V102.2H239.262V104.64C239.396 104.395 239.572 104.213 239.79 104.096C240.014 103.979 240.27 103.92 240.558 103.92Z" fill="white"/>
<path d="M198.554 45H197.698V39.72H198.554V45ZM202.121 40.92C202.563 40.92 202.923 41.048 203.201 41.304C203.483 41.56 203.625 41.928 203.625 42.408V45H202.769V42.68C202.769 41.976 202.483 41.624 201.913 41.624C201.614 41.624 201.358 41.728 201.145 41.936C200.931 42.1387 200.825 42.4533 200.825 42.88V45H199.969V41H200.729L200.769 41.664C200.902 41.4133 201.086 41.2267 201.321 41.104C201.555 40.9813 201.822 40.92 202.121 40.92ZM206.011 41H207.307V41.672H206.035V45H205.179V41.672H204.427V41H205.179V40.424C205.179 40.0187 205.302 39.704 205.547 39.48C205.792 39.256 206.136 39.144 206.579 39.144C206.739 39.144 206.886 39.1627 207.019 39.2C207.152 39.232 207.256 39.2773 207.331 39.336L207.171 39.96C207.048 39.88 206.896 39.84 206.715 39.84C206.246 39.84 206.011 40.056 206.011 40.488V41ZM209.752 40.92C210.376 40.92 210.864 41.104 211.216 41.472C211.568 41.84 211.744 42.3493 211.744 43C211.744 43.6507 211.568 44.16 211.216 44.528C210.864 44.896 210.376 45.08 209.752 45.08C209.128 45.08 208.64 44.896 208.288 44.528C207.936 44.16 207.76 43.6507 207.76 43C207.76 42.3493 207.936 41.84 208.288 41.472C208.64 41.104 209.128 40.92 209.752 40.92ZM209.752 41.592C209.389 41.592 209.109 41.7147 208.912 41.96C208.72 42.2 208.624 42.5467 208.624 43C208.624 43.4533 208.72 43.8027 208.912 44.048C209.109 44.288 209.389 44.408 209.752 44.408C210.115 44.408 210.395 44.2853 210.592 44.04C210.789 43.7947 210.888 43.448 210.888 43C210.888 42.552 210.789 42.2053 210.592 41.96C210.395 41.7147 210.115 41.592 209.752 41.592ZM214.908 40.92C215.094 40.92 215.241 40.9467 215.348 41L215.212 41.784C215.089 41.7147 214.921 41.68 214.708 41.68C214.537 41.68 214.374 41.7253 214.22 41.816C214.07 41.9067 213.945 42.0427 213.844 42.224C213.748 42.4053 213.7 42.624 213.7 42.88V45H212.844V41H213.572L213.644 41.72C213.868 41.1867 214.289 40.92 214.908 40.92ZM220.98 40.92C221.247 40.92 221.492 40.976 221.716 41.088C221.94 41.1947 222.119 41.36 222.252 41.584C222.386 41.808 222.452 42.0827 222.452 42.408V45H221.596V42.544C221.596 42.2293 221.522 41.9973 221.372 41.848C221.223 41.6987 221.023 41.624 220.772 41.624C220.479 41.624 220.231 41.7307 220.028 41.944C219.831 42.1573 219.732 42.4507 219.732 42.824V45H218.876V42.544C218.876 42.2293 218.802 41.9973 218.652 41.848C218.503 41.6987 218.303 41.624 218.052 41.624C217.882 41.624 217.716 41.6693 217.556 41.76C217.396 41.8453 217.266 41.9813 217.164 42.168C217.063 42.3547 217.012 42.5893 217.012 42.872V45H216.156V41H216.916L216.956 41.664C217.09 41.4187 217.271 41.2347 217.5 41.112C217.73 40.984 217.98 40.92 218.252 40.92C218.551 40.92 218.82 40.9893 219.06 41.128C219.306 41.2613 219.487 41.4587 219.604 41.72C219.727 41.4587 219.914 41.2613 220.164 41.128C220.42 40.9893 220.692 40.92 220.98 40.92Z" fill="white"/>
</svg>
