<svg width="420" height="420" viewBox="0 0 420 420" fill="none" xmlns="http://www.w3.org/2000/svg">
  <g id="research-team" class="shadow-xl">
    <path d="M259 121C259 107.745 269.745 97 283 97V97C296.255 97 307 107.745 307 121V121C307 134.255 296.255 145 283 145V145C269.745 145 259 134.255 259 121V121Z" fill="#111827"/>
    <path d="M272.289 115.94C272.429 115.94 272.537 115.962 272.613 116.006L272.511 116.726C272.419 116.666 272.293 116.636 272.133 116.636C271.937 116.636 271.767 116.708 271.623 116.852C271.483 116.992 271.413 117.19 271.413 117.446V119H270.591V116H271.305L271.359 116.588C271.523 116.156 271.833 115.94 272.289 115.94ZM275.866 117.488C275.866 117.6 275.858 117.708 275.842 117.812H273.718C273.802 118.236 274.052 118.448 274.468 118.448C274.64 118.448 274.782 118.416 274.894 118.352C275.006 118.288 275.084 118.196 275.128 118.076L275.8 118.322C275.704 118.562 275.542 118.746 275.314 118.874C275.09 118.998 274.808 119.06 274.468 119.06C273.972 119.06 273.588 118.924 273.316 118.652C273.044 118.376 272.908 117.992 272.908 117.5C272.908 117.008 273.04 116.626 273.304 116.354C273.568 116.078 273.94 115.94 274.42 115.94C274.884 115.94 275.24 116.074 275.488 116.342C275.74 116.61 275.866 116.992 275.866 117.488ZM274.414 116.546C274.214 116.546 274.054 116.604 273.934 116.72C273.818 116.836 273.744 117.008 273.712 117.236H275.11C275.078 117.012 275.002 116.842 274.882 116.726C274.762 116.606 274.606 116.546 274.414 116.546ZM277.72 119.06C277.052 119.06 276.588 118.868 276.328 118.484L276.808 117.992C276.888 118.164 277.002 118.286 277.15 118.358C277.302 118.426 277.488 118.46 277.708 118.46C277.884 118.46 278.02 118.436 278.116 118.388C278.212 118.34 278.26 118.274 278.26 118.19C278.26 118.122 278.214 118.064 278.122 118.016C278.034 117.968 277.88 117.922 277.66 117.878C277.2 117.786 276.876 117.666 276.688 117.518C276.504 117.366 276.412 117.162 276.412 116.906C276.412 116.738 276.464 116.58 276.568 116.432C276.672 116.284 276.826 116.166 277.03 116.078C277.234 115.986 277.478 115.94 277.762 115.94C278.098 115.94 278.37 115.992 278.578 116.096C278.786 116.196 278.96 116.356 279.1 116.576L278.59 117.008C278.502 116.848 278.392 116.73 278.26 116.654C278.132 116.578 277.97 116.54 277.774 116.54C277.61 116.54 277.478 116.568 277.378 116.624C277.282 116.68 277.234 116.748 277.234 116.828C277.234 116.912 277.282 116.982 277.378 117.038C277.474 117.094 277.644 117.146 277.888 117.194C278.324 117.282 278.632 117.398 278.812 117.542C278.996 117.682 279.088 117.878 279.088 118.13C279.088 118.41 278.968 118.636 278.728 118.808C278.492 118.976 278.156 119.06 277.72 119.06ZM282.534 117.488C282.534 117.6 282.526 117.708 282.51 117.812H280.386C280.47 118.236 280.72 118.448 281.136 118.448C281.308 118.448 281.45 118.416 281.562 118.352C281.674 118.288 281.752 118.196 281.796 118.076L282.468 118.322C282.372 118.562 282.21 118.746 281.982 118.874C281.758 118.998 281.476 119.06 281.136 119.06C280.64 119.06 280.256 118.924 279.984 118.652C279.712 118.376 279.576 117.992 279.576 117.5C279.576 117.008 279.708 116.626 279.972 116.354C280.236 116.078 280.608 115.94 281.088 115.94C281.552 115.94 281.908 116.074 282.156 116.342C282.408 116.61 282.534 116.992 282.534 117.488ZM281.082 116.546C280.882 116.546 280.722 116.604 280.602 116.72C280.486 116.836 280.412 117.008 280.38 117.236H281.778C281.746 117.012 281.67 116.842 281.55 116.726C281.43 116.606 281.274 116.546 281.082 116.546ZM285.966 118.502C286.05 118.502 286.118 118.494 286.17 118.478L286.11 118.976C285.998 119.032 285.868 119.06 285.72 119.06C285.336 119.06 285.106 118.91 285.03 118.61C284.942 118.758 284.806 118.87 284.622 118.946C284.438 119.022 284.22 119.06 283.968 119.06C283.676 119.06 283.448 118.994 283.284 118.862C283.12 118.73 283.038 118.54 283.038 118.292C283.038 117.804 283.428 117.488 284.208 117.344L284.928 117.206V117.062C284.928 116.902 284.882 116.776 284.79 116.684C284.702 116.588 284.578 116.54 284.418 116.54C284.234 116.54 284.084 116.58 283.968 116.66C283.852 116.74 283.772 116.87 283.728 117.05L283.074 116.774C283.138 116.514 283.282 116.31 283.506 116.162C283.73 116.014 284.022 115.94 284.382 115.94C284.81 115.94 285.144 116.034 285.384 116.222C285.624 116.406 285.744 116.68 285.744 117.044V118.274C285.744 118.354 285.762 118.412 285.798 118.448C285.834 118.484 285.89 118.502 285.966 118.502ZM284.226 118.502C284.402 118.502 284.562 118.46 284.706 118.376C284.854 118.288 284.928 118.17 284.928 118.022V117.71L284.286 117.854C284.15 117.886 284.048 117.93 283.98 117.986C283.916 118.038 283.884 118.112 283.884 118.208C283.884 118.304 283.914 118.378 283.974 118.43C284.034 118.478 284.118 118.502 284.226 118.502ZM288.367 115.94C288.507 115.94 288.615 115.962 288.691 116.006L288.589 116.726C288.497 116.666 288.371 116.636 288.211 116.636C288.015 116.636 287.845 116.708 287.701 116.852C287.561 116.992 287.491 117.19 287.491 117.446V119H286.669V116H287.383L287.437 116.588C287.601 116.156 287.911 115.94 288.367 115.94ZM290.516 115.94C290.912 115.94 291.22 116.02 291.44 116.18C291.66 116.34 291.81 116.554 291.89 116.822L291.122 117.098C291.05 116.734 290.856 116.552 290.54 116.552C290.304 116.552 290.122 116.634 289.994 116.798C289.87 116.958 289.808 117.194 289.808 117.506C289.808 117.818 289.872 118.054 290 118.214C290.128 118.37 290.306 118.448 290.534 118.448C290.886 118.448 291.094 118.27 291.158 117.914L291.902 118.154C291.838 118.43 291.688 118.65 291.452 118.814C291.22 118.978 290.918 119.06 290.546 119.06C290.05 119.06 289.666 118.924 289.394 118.652C289.122 118.376 288.986 117.992 288.986 117.5C288.986 117.008 289.12 116.626 289.388 116.354C289.66 116.078 290.036 115.94 290.516 115.94ZM294.346 115.94C294.67 115.94 294.93 116.034 295.126 116.222C295.326 116.41 295.426 116.68 295.426 117.032V119H294.604V117.272C294.604 116.816 294.426 116.588 294.07 116.588C293.878 116.588 293.714 116.656 293.578 116.792C293.446 116.928 293.38 117.136 293.38 117.416V119H292.558V114.686H293.38V116.51C293.472 116.318 293.6 116.176 293.764 116.084C293.932 115.988 294.126 115.94 294.346 115.94ZM277.899 127.814C277.803 127.89 277.681 127.95 277.533 127.994C277.389 128.038 277.237 128.06 277.077 128.06C276.409 128.06 276.075 127.758 276.075 127.154V125.612H275.529V125H276.075V124.31L276.897 124.082V125H277.869V125.612H276.897V127.022C276.897 127.298 277.035 127.436 277.311 127.436C277.487 127.436 277.641 127.38 277.773 127.268L277.899 127.814ZM281.215 126.488C281.215 126.6 281.207 126.708 281.191 126.812H279.067C279.151 127.236 279.401 127.448 279.817 127.448C279.989 127.448 280.131 127.416 280.243 127.352C280.355 127.288 280.433 127.196 280.477 127.076L281.149 127.322C281.053 127.562 280.891 127.746 280.663 127.874C280.439 127.998 280.157 128.06 279.817 128.06C279.321 128.06 278.937 127.924 278.665 127.652C278.393 127.376 278.257 126.992 278.257 126.5C278.257 126.008 278.389 125.626 278.653 125.354C278.917 125.078 279.289 124.94 279.769 124.94C280.233 124.94 280.589 125.074 280.837 125.342C281.089 125.61 281.215 125.992 281.215 126.488ZM279.763 125.546C279.563 125.546 279.403 125.604 279.283 125.72C279.167 125.836 279.093 126.008 279.061 126.236H280.459C280.427 126.012 280.351 125.842 280.231 125.726C280.111 125.606 279.955 125.546 279.763 125.546ZM284.648 127.502C284.732 127.502 284.8 127.494 284.852 127.478L284.792 127.976C284.68 128.032 284.55 128.06 284.402 128.06C284.018 128.06 283.788 127.91 283.712 127.61C283.624 127.758 283.488 127.87 283.304 127.946C283.12 128.022 282.902 128.06 282.65 128.06C282.358 128.06 282.13 127.994 281.966 127.862C281.802 127.73 281.72 127.54 281.72 127.292C281.72 126.804 282.11 126.488 282.89 126.344L283.61 126.206V126.062C283.61 125.902 283.564 125.776 283.472 125.684C283.384 125.588 283.26 125.54 283.1 125.54C282.916 125.54 282.766 125.58 282.65 125.66C282.534 125.74 282.454 125.87 282.41 126.05L281.756 125.774C281.82 125.514 281.964 125.31 282.188 125.162C282.412 125.014 282.704 124.94 283.064 124.94C283.492 124.94 283.826 125.034 284.066 125.222C284.306 125.406 284.426 125.68 284.426 126.044V127.274C284.426 127.354 284.444 127.412 284.48 127.448C284.516 127.484 284.572 127.502 284.648 127.502ZM282.908 127.502C283.084 127.502 283.244 127.46 283.388 127.376C283.536 127.288 283.61 127.17 283.61 127.022V126.71L282.968 126.854C282.832 126.886 282.73 126.93 282.662 126.986C282.598 127.038 282.566 127.112 282.566 127.208C282.566 127.304 282.596 127.378 282.656 127.43C282.716 127.478 282.8 127.502 282.908 127.502ZM289.107 124.94C289.415 124.94 289.669 125.034 289.869 125.222C290.073 125.41 290.175 125.68 290.175 126.032V128H289.353V126.194C289.353 125.986 289.307 125.834 289.215 125.738C289.123 125.638 288.997 125.588 288.837 125.588C288.645 125.588 288.487 125.658 288.363 125.798C288.239 125.938 288.177 126.134 288.177 126.386V128H287.355V126.194C287.355 125.986 287.309 125.834 287.217 125.738C287.125 125.638 286.997 125.588 286.833 125.588C286.653 125.588 286.497 125.658 286.365 125.798C286.237 125.934 286.173 126.138 286.173 126.41V128H285.351V125H286.089L286.113 125.534C286.213 125.338 286.349 125.19 286.521 125.09C286.697 124.99 286.893 124.94 287.109 124.94C287.333 124.94 287.531 124.992 287.703 125.096C287.879 125.2 288.007 125.35 288.087 125.546C288.183 125.35 288.323 125.2 288.507 125.096C288.691 124.992 288.891 124.94 289.107 124.94Z" fill="#F9FAFB"/>
  </g>
  
  <g id="ceo" class="shadow-xl">
    <path d="M360 247C360 233.745 370.745 223 384 223V223C397.255 223 408 233.745 408 247V247C408 260.255 397.255 271 384 271V271C370.745 271 360 260.255 360 247V247Z" fill="black"/>
    <path d="M381.762 248.408C381.646 248.788 381.44 249.076 381.144 249.272C380.848 249.464 380.494 249.56 380.082 249.56C379.694 249.56 379.356 249.478 379.068 249.314C378.78 249.15 378.558 248.916 378.402 248.612C378.25 248.304 378.174 247.94 378.174 247.52C378.174 247.1 378.25 246.738 378.402 246.434C378.558 246.126 378.778 245.89 379.062 245.726C379.35 245.562 379.686 245.48 380.07 245.48C380.482 245.48 380.83 245.566 381.114 245.738C381.402 245.91 381.6 246.166 381.708 246.506L380.958 246.824C380.894 246.588 380.794 246.418 380.658 246.314C380.522 246.21 380.338 246.158 380.106 246.158C379.77 246.158 379.506 246.276 379.314 246.512C379.126 246.748 379.032 247.084 379.032 247.52C379.032 247.956 379.124 248.292 379.308 248.528C379.492 248.764 379.752 248.882 380.088 248.882C380.572 248.882 380.876 248.648 381 248.18L381.762 248.408ZM385.522 248.834V249.5H382.468V245.54H385.438V246.206H383.296V247.19H384.982V247.826H383.296V248.834H385.522ZM387.922 245.48C388.31 245.48 388.646 245.562 388.93 245.726C389.218 245.89 389.438 246.126 389.59 246.434C389.746 246.738 389.824 247.1 389.824 247.52C389.824 247.94 389.746 248.304 389.59 248.612C389.438 248.916 389.218 249.15 388.93 249.314C388.646 249.478 388.31 249.56 387.922 249.56C387.534 249.56 387.196 249.478 386.908 249.314C386.62 249.15 386.398 248.916 386.242 248.612C386.09 248.304 386.014 247.94 386.014 247.52C386.014 247.1 386.09 246.738 386.242 246.434C386.398 246.126 386.62 245.89 386.908 245.726C387.196 245.562 387.534 245.48 387.922 245.48ZM387.922 246.158C387.586 246.158 387.326 246.276 387.142 246.512C386.962 246.744 386.872 247.08 386.872 247.52C386.872 247.96 386.962 248.298 387.142 248.534C387.326 248.766 387.586 248.882 387.922 248.882C388.254 248.882 388.51 248.766 388.69 248.534C388.874 248.298 388.966 247.96 388.966 247.52C388.966 247.08 388.874 246.744 388.69 246.512C388.51 246.276 388.254 246.158 387.922 246.158Z" fill="#F9FAFB"/>
  </g>

  <g id="engineering">
    <path d="M207 325C207 311.745 217.745 301 231 301V301C244.255 301 255 311.745 255 325V325C255 338.255 244.255 349 231 349V349C217.745 349 207 338.255 207 325V325Z" fill="#111827"/>
    <path d="M226.541 321.488C226.541 321.6 226.533 321.708 226.517 321.812H224.393C224.477 322.236 224.727 322.448 225.143 322.448C225.315 322.448 225.457 322.416 225.569 322.352C225.681 322.288 225.759 322.196 225.803 322.076L226.475 322.322C226.379 322.562 226.217 322.746 225.989 322.874C225.765 322.998 225.483 323.06 225.143 323.06C224.647 323.06 224.263 322.924 223.991 322.652C223.719 322.376 223.583 321.992 223.583 321.5C223.583 321.008 223.715 320.626 223.979 320.354C224.243 320.078 224.615 319.94 225.095 319.94C225.559 319.94 225.915 320.074 226.163 320.342C226.415 320.61 226.541 320.992 226.541 321.488ZM225.089 320.546C224.889 320.546 224.729 320.604 224.609 320.72C224.493 320.836 224.419 321.008 224.387 321.236H225.785C225.753 321.012 225.677 320.842 225.557 320.726C225.437 320.606 225.281 320.546 225.089 320.546ZM229.019 319.94C229.343 319.94 229.603 320.034 229.799 320.222C229.999 320.41 230.099 320.68 230.099 321.032V323H229.277V321.272C229.277 320.816 229.099 320.588 228.743 320.588C228.551 320.588 228.387 320.656 228.251 320.792C228.119 320.928 228.053 321.136 228.053 321.416V323H227.231V320H227.969L227.993 320.534C228.093 320.338 228.231 320.19 228.407 320.09C228.583 319.99 228.787 319.94 229.019 319.94ZM232.77 322.436C233.098 322.436 233.35 322.508 233.526 322.652C233.706 322.796 233.796 323.002 233.796 323.27C233.796 323.59 233.648 323.84 233.352 324.02C233.056 324.2 232.666 324.29 232.182 324.29C231.682 324.29 231.31 324.224 231.066 324.092C230.826 323.96 230.706 323.78 230.706 323.552C230.706 323.416 230.752 323.298 230.844 323.198C230.936 323.098 231.072 323.026 231.252 322.982C231.116 322.926 231.008 322.848 230.928 322.748C230.848 322.644 230.808 322.522 230.808 322.382C230.808 322.238 230.85 322.114 230.934 322.01C231.018 321.906 231.134 321.828 231.282 321.776C231.13 321.688 231.014 321.576 230.934 321.44C230.854 321.3 230.814 321.14 230.814 320.96C230.814 320.644 230.936 320.396 231.18 320.216C231.428 320.032 231.764 319.94 232.188 319.94C232.404 319.94 232.606 319.966 232.794 320.018C232.846 319.782 232.946 319.598 233.094 319.466C233.246 319.33 233.45 319.27 233.706 319.286L233.814 319.874C233.786 319.87 233.744 319.868 233.688 319.868C233.54 319.868 233.416 319.894 233.316 319.946C233.22 319.998 233.152 320.068 233.112 320.156C233.26 320.244 233.372 320.356 233.448 320.492C233.528 320.628 233.568 320.784 233.568 320.96C233.568 321.272 233.444 321.52 233.196 321.704C232.952 321.884 232.616 321.974 232.188 321.974C231.992 321.974 231.812 321.956 231.648 321.92C231.492 321.96 231.414 322.05 231.414 322.19C231.414 322.27 231.444 322.332 231.504 322.376C231.564 322.416 231.648 322.436 231.756 322.436H232.77ZM232.188 320.456C232.028 320.456 231.896 320.502 231.792 320.594C231.692 320.686 231.642 320.806 231.642 320.954C231.642 321.106 231.692 321.228 231.792 321.32C231.896 321.412 232.028 321.458 232.188 321.458C232.352 321.458 232.484 321.412 232.584 321.32C232.688 321.228 232.74 321.106 232.74 320.954C232.74 320.806 232.688 320.686 232.584 320.594C232.484 320.502 232.352 320.456 232.188 320.456ZM232.248 323.726C232.528 323.726 232.744 323.69 232.896 323.618C233.048 323.55 233.124 323.462 233.124 323.354C233.124 323.27 233.088 323.206 233.016 323.162C232.948 323.122 232.834 323.102 232.674 323.102H231.858C231.526 323.102 231.36 323.192 231.36 323.372C231.36 323.484 231.434 323.57 231.582 323.63C231.73 323.694 231.952 323.726 232.248 323.726ZM234.717 319.568C234.377 319.568 234.207 319.422 234.207 319.13C234.207 318.834 234.377 318.686 234.717 318.686C235.057 318.686 235.227 318.834 235.227 319.13C235.227 319.422 235.057 319.568 234.717 319.568ZM235.125 323H234.303V320H235.125V323ZM238.186 321.764H236.068V321.056H238.186V321.764ZM222.222 328.94C222.546 328.94 222.806 329.034 223.002 329.222C223.202 329.41 223.302 329.68 223.302 330.032V332H222.48V330.272C222.48 329.816 222.302 329.588 221.946 329.588C221.754 329.588 221.59 329.656 221.454 329.792C221.322 329.928 221.256 330.136 221.256 330.416V332H220.434V329H221.172L221.196 329.534C221.296 329.338 221.434 329.19 221.61 329.09C221.786 328.99 221.99 328.94 222.222 328.94ZM226.951 330.488C226.951 330.6 226.943 330.708 226.927 330.812H224.803C224.887 331.236 225.137 331.448 225.553 331.448C225.725 331.448 225.867 331.416 225.979 331.352C226.091 331.288 226.169 331.196 226.213 331.076L226.885 331.322C226.789 331.562 226.627 331.746 226.399 331.874C226.175 331.998 225.893 332.06 225.553 332.06C225.057 332.06 224.673 331.924 224.401 331.652C224.129 331.376 223.993 330.992 223.993 330.5C223.993 330.008 224.125 329.626 224.389 329.354C224.653 329.078 225.025 328.94 225.505 328.94C225.969 328.94 226.325 329.074 226.573 329.342C226.825 329.61 226.951 329.992 226.951 330.488ZM225.499 329.546C225.299 329.546 225.139 329.604 225.019 329.72C224.903 329.836 224.829 330.008 224.797 330.236H226.195C226.163 330.012 226.087 329.842 225.967 329.726C225.847 329.606 225.691 329.546 225.499 329.546ZM230.443 330.488C230.443 330.6 230.435 330.708 230.419 330.812H228.295C228.379 331.236 228.629 331.448 229.045 331.448C229.217 331.448 229.359 331.416 229.471 331.352C229.583 331.288 229.661 331.196 229.705 331.076L230.377 331.322C230.281 331.562 230.119 331.746 229.891 331.874C229.667 331.998 229.385 332.06 229.045 332.06C228.549 332.06 228.165 331.924 227.893 331.652C227.621 331.376 227.485 330.992 227.485 330.5C227.485 330.008 227.617 329.626 227.881 329.354C228.145 329.078 228.517 328.94 228.997 328.94C229.461 328.94 229.817 329.074 230.065 329.342C230.317 329.61 230.443 329.992 230.443 330.488ZM228.991 329.546C228.791 329.546 228.631 329.604 228.511 329.72C228.395 329.836 228.321 330.008 228.289 330.236H229.687C229.655 330.012 229.579 329.842 229.459 329.726C229.339 329.606 229.183 329.546 228.991 329.546ZM232.831 328.94C232.971 328.94 233.079 328.962 233.155 329.006L233.053 329.726C232.961 329.666 232.835 329.636 232.675 329.636C232.479 329.636 232.309 329.708 232.165 329.852C232.025 329.992 231.955 330.19 231.955 330.446V332H231.133V329H231.847L231.901 329.588C232.065 329.156 232.375 328.94 232.831 328.94ZM234.078 328.568C233.738 328.568 233.568 328.422 233.568 328.13C233.568 327.834 233.738 327.686 234.078 327.686C234.418 327.686 234.588 327.834 234.588 328.13C234.588 328.422 234.418 328.568 234.078 328.568ZM234.486 332H233.664V329H234.486V332ZM237.146 328.94C237.47 328.94 237.73 329.034 237.926 329.222C238.126 329.41 238.226 329.68 238.226 330.032V332H237.404V330.272C237.404 329.816 237.226 329.588 236.87 329.588C236.678 329.588 236.514 329.656 236.378 329.792C236.246 329.928 236.18 330.136 236.18 330.416V332H235.358V329H236.096L236.12 329.534C236.22 329.338 236.358 329.19 236.534 329.09C236.71 328.99 236.914 328.94 237.146 328.94ZM240.897 331.436C241.225 331.436 241.477 331.508 241.653 331.652C241.833 331.796 241.923 332.002 241.923 332.27C241.923 332.59 241.775 332.84 241.479 333.02C241.183 333.2 240.793 333.29 240.309 333.29C239.809 333.29 239.437 333.224 239.193 333.092C238.953 332.96 238.833 332.78 238.833 332.552C238.833 332.416 238.879 332.298 238.971 332.198C239.063 332.098 239.199 332.026 239.379 331.982C239.243 331.926 239.135 331.848 239.055 331.748C238.975 331.644 238.935 331.522 238.935 331.382C238.935 331.238 238.977 331.114 239.061 331.01C239.145 330.906 239.261 330.828 239.409 330.776C239.257 330.688 239.141 330.576 239.061 330.44C238.981 330.3 238.941 330.14 238.941 329.96C238.941 329.644 239.063 329.396 239.307 329.216C239.555 329.032 239.891 328.94 240.315 328.94C240.531 328.94 240.733 328.966 240.921 329.018C240.973 328.782 241.073 328.598 241.221 328.466C241.373 328.33 241.577 328.27 241.833 328.286L241.941 328.874C241.913 328.87 241.871 328.868 241.815 328.868C241.667 328.868 241.543 328.894 241.443 328.946C241.347 328.998 241.279 329.068 241.239 329.156C241.387 329.244 241.499 329.356 241.575 329.492C241.655 329.628 241.695 329.784 241.695 329.96C241.695 330.272 241.571 330.52 241.323 330.704C241.079 330.884 240.743 330.974 240.315 330.974C240.119 330.974 239.939 330.956 239.775 330.92C239.619 330.96 239.541 331.05 239.541 331.19C239.541 331.27 239.571 331.332 239.631 331.376C239.691 331.416 239.775 331.436 239.883 331.436H240.897ZM240.315 329.456C240.155 329.456 240.023 329.502 239.919 329.594C239.819 329.686 239.769 329.806 239.769 329.954C239.769 330.106 239.819 330.228 239.919 330.32C240.023 330.412 240.155 330.458 240.315 330.458C240.479 330.458 240.611 330.412 240.711 330.32C240.815 330.228 240.867 330.106 240.867 329.954C240.867 329.806 240.815 329.686 240.711 329.594C240.611 329.502 240.479 329.456 240.315 329.456ZM240.375 332.726C240.655 332.726 240.871 332.69 241.023 332.618C241.175 332.55 241.251 332.462 241.251 332.354C241.251 332.27 241.215 332.206 241.143 332.162C241.075 332.122 240.961 332.102 240.801 332.102H239.985C239.653 332.102 239.487 332.192 239.487 332.372C239.487 332.484 239.561 332.57 239.709 332.63C239.857 332.694 240.079 332.726 240.375 332.726Z" fill="#F9FAFB"/>
  </g>
  
  <g id="marketing">
    <path d="M24 136C24 122.745 34.7452 112 48 112V112C61.2548 112 72 122.745 72 136V136C72 149.255 61.2548 160 48 160V160C34.7452 160 24 149.255 24 136V136Z" fill="black"/>
    <path d="M37.2437 135.44C37.5517 135.44 37.8057 135.534 38.0057 135.722C38.2097 135.91 38.3117 136.18 38.3117 136.532V138.5H37.4897V136.694C37.4897 136.486 37.4437 136.334 37.3517 136.238C37.2597 136.138 37.1337 136.088 36.9737 136.088C36.7817 136.088 36.6237 136.158 36.4997 136.298C36.3757 136.438 36.3137 136.634 36.3137 136.886V138.5H35.4917V136.694C35.4917 136.486 35.4457 136.334 35.3537 136.238C35.2617 136.138 35.1337 136.088 34.9697 136.088C34.7897 136.088 34.6337 136.158 34.5017 136.298C34.3737 136.434 34.3097 136.638 34.3097 136.91V138.5H33.4877V135.5H34.2257L34.2497 136.034C34.3497 135.838 34.4857 135.69 34.6577 135.59C34.8337 135.49 35.0297 135.44 35.2457 135.44C35.4697 135.44 35.6677 135.492 35.8397 135.596C36.0157 135.7 36.1437 135.85 36.2237 136.046C36.3197 135.85 36.4597 135.7 36.6437 135.596C36.8277 135.492 37.0277 135.44 37.2437 135.44ZM41.9015 138.002C41.9855 138.002 42.0535 137.994 42.1055 137.978L42.0455 138.476C41.9335 138.532 41.8035 138.56 41.6555 138.56C41.2715 138.56 41.0415 138.41 40.9655 138.11C40.8775 138.258 40.7415 138.37 40.5575 138.446C40.3735 138.522 40.1555 138.56 39.9035 138.56C39.6115 138.56 39.3835 138.494 39.2195 138.362C39.0555 138.23 38.9735 138.04 38.9735 137.792C38.9735 137.304 39.3635 136.988 40.1435 136.844L40.8635 136.706V136.562C40.8635 136.402 40.8175 136.276 40.7255 136.184C40.6375 136.088 40.5135 136.04 40.3535 136.04C40.1695 136.04 40.0195 136.08 39.9035 136.16C39.7875 136.24 39.7075 136.37 39.6635 136.55L39.0095 136.274C39.0735 136.014 39.2175 135.81 39.4415 135.662C39.6655 135.514 39.9575 135.44 40.3175 135.44C40.7455 135.44 41.0795 135.534 41.3195 135.722C41.5595 135.906 41.6795 136.18 41.6795 136.544V137.774C41.6795 137.854 41.6975 137.912 41.7335 137.948C41.7695 137.984 41.8255 138.002 41.9015 138.002ZM40.1615 138.002C40.3375 138.002 40.4975 137.96 40.6415 137.876C40.7895 137.788 40.8635 137.67 40.8635 137.522V137.21L40.2215 137.354C40.0855 137.386 39.9835 137.43 39.9155 137.486C39.8515 137.538 39.8195 137.612 39.8195 137.708C39.8195 137.804 39.8495 137.878 39.9095 137.93C39.9695 137.978 40.0535 138.002 40.1615 138.002ZM44.3029 135.44C44.4429 135.44 44.5509 135.462 44.6269 135.506L44.5249 136.226C44.4329 136.166 44.3069 136.136 44.1469 136.136C43.9509 136.136 43.7809 136.208 43.6369 136.352C43.4969 136.492 43.4269 136.69 43.4269 136.946V138.5H42.6049V135.5H43.3189L43.3729 136.088C43.5369 135.656 43.8469 135.44 44.3029 135.44ZM46.5041 137.174L45.9581 137.756V138.5H45.1361V134.186H45.9581V136.868L47.2601 135.5H48.1901L47.0621 136.676L48.2621 138.5H47.3321L46.5041 137.174ZM51.401 136.988C51.401 137.1 51.393 137.208 51.377 137.312H49.253C49.337 137.736 49.587 137.948 50.003 137.948C50.175 137.948 50.317 137.916 50.429 137.852C50.541 137.788 50.619 137.696 50.663 137.576L51.335 137.822C51.239 138.062 51.077 138.246 50.849 138.374C50.625 138.498 50.343 138.56 50.003 138.56C49.507 138.56 49.123 138.424 48.851 138.152C48.579 137.876 48.443 137.492 48.443 137C48.443 136.508 48.575 136.126 48.839 135.854C49.103 135.578 49.475 135.44 49.955 135.44C50.419 135.44 50.775 135.574 51.023 135.842C51.275 136.11 51.401 136.492 51.401 136.988ZM49.949 136.046C49.749 136.046 49.589 136.104 49.469 136.22C49.353 136.336 49.279 136.508 49.247 136.736H50.645C50.613 136.512 50.537 136.342 50.417 136.226C50.297 136.106 50.141 136.046 49.949 136.046ZM54.0964 138.314C54.0004 138.39 53.8784 138.45 53.7304 138.494C53.5864 138.538 53.4344 138.56 53.2744 138.56C52.6064 138.56 52.2724 138.258 52.2724 137.654V136.112H51.7264V135.5H52.2724V134.81L53.0944 134.582V135.5H54.0664V136.112H53.0944V137.522C53.0944 137.798 53.2324 137.936 53.5084 137.936C53.6844 137.936 53.8384 137.88 53.9704 137.768L54.0964 138.314ZM55.0247 135.068C54.6847 135.068 54.5147 134.922 54.5147 134.63C54.5147 134.334 54.6847 134.186 55.0247 134.186C55.3647 134.186 55.5347 134.334 55.5347 134.63C55.5347 134.922 55.3647 135.068 55.0247 135.068ZM55.4327 138.5H54.6107V135.5H55.4327V138.5ZM58.0921 135.44C58.4161 135.44 58.6761 135.534 58.8721 135.722C59.0721 135.91 59.1721 136.18 59.1721 136.532V138.5H58.3501V136.772C58.3501 136.316 58.1721 136.088 57.8161 136.088C57.6241 136.088 57.4601 136.156 57.3241 136.292C57.1921 136.428 57.1261 136.636 57.1261 136.916V138.5H56.3041V135.5H57.0421L57.0661 136.034C57.1661 135.838 57.3041 135.69 57.4801 135.59C57.6561 135.49 57.8601 135.44 58.0921 135.44ZM61.8429 137.936C62.1709 137.936 62.4229 138.008 62.5989 138.152C62.7789 138.296 62.8689 138.502 62.8689 138.77C62.8689 139.09 62.7209 139.34 62.4249 139.52C62.1289 139.7 61.7389 139.79 61.2549 139.79C60.7549 139.79 60.3829 139.724 60.1389 139.592C59.8989 139.46 59.7789 139.28 59.7789 139.052C59.7789 138.916 59.8249 138.798 59.9169 138.698C60.0089 138.598 60.1449 138.526 60.3249 138.482C60.1889 138.426 60.0809 138.348 60.0009 138.248C59.9209 138.144 59.8809 138.022 59.8809 137.882C59.8809 137.738 59.9229 137.614 60.0069 137.51C60.0909 137.406 60.2069 137.328 60.3549 137.276C60.2029 137.188 60.0869 137.076 60.0069 136.94C59.9269 136.8 59.8869 136.64 59.8869 136.46C59.8869 136.144 60.0089 135.896 60.2529 135.716C60.5009 135.532 60.8369 135.44 61.2609 135.44C61.4769 135.44 61.6789 135.466 61.8669 135.518C61.9189 135.282 62.0189 135.098 62.1669 134.966C62.3189 134.83 62.5229 134.77 62.7789 134.786L62.8869 135.374C62.8589 135.37 62.8169 135.368 62.7609 135.368C62.6129 135.368 62.4889 135.394 62.3889 135.446C62.2929 135.498 62.2249 135.568 62.1849 135.656C62.3329 135.744 62.4449 135.856 62.5209 135.992C62.6009 136.128 62.6409 136.284 62.6409 136.46C62.6409 136.772 62.5169 137.02 62.2689 137.204C62.0249 137.384 61.6889 137.474 61.2609 137.474C61.0649 137.474 60.8849 137.456 60.7209 137.42C60.5649 137.46 60.4869 137.55 60.4869 137.69C60.4869 137.77 60.5169 137.832 60.5769 137.876C60.6369 137.916 60.7209 137.936 60.8289 137.936H61.8429ZM61.2609 135.956C61.1009 135.956 60.9689 136.002 60.8649 136.094C60.7649 136.186 60.7149 136.306 60.7149 136.454C60.7149 136.606 60.7649 136.728 60.8649 136.82C60.9689 136.912 61.1009 136.958 61.2609 136.958C61.4249 136.958 61.5569 136.912 61.6569 136.82C61.7609 136.728 61.8129 136.606 61.8129 136.454C61.8129 136.306 61.7609 136.186 61.6569 136.094C61.5569 136.002 61.4249 135.956 61.2609 135.956ZM61.3209 139.226C61.6009 139.226 61.8169 139.19 61.9689 139.118C62.1209 139.05 62.1969 138.962 62.1969 138.854C62.1969 138.77 62.1609 138.706 62.0889 138.662C62.0209 138.622 61.9069 138.602 61.7469 138.602H60.9309C60.5989 138.602 60.4329 138.692 60.4329 138.872C60.4329 138.984 60.5069 139.07 60.6549 139.13C60.8029 139.194 61.0249 139.226 61.3209 139.226Z" fill="#F9FAFB"/>
  </g>

  <g id="team-member-lb">
    <path d="M157 235C157 231.284 157 229.426 157.246 227.871C158.602 219.313 165.313 212.602 173.871 211.246C175.426 211 177.284 211 181 211V211C184.716 211 186.574 211 188.129 211.246C196.687 212.602 203.398 219.313 204.754 227.871C205 229.426 205 231.284 205 235V235C205 238.716 205 240.574 204.754 242.129C203.398 250.687 196.687 257.398 188.129 258.754C186.574 259 184.716 259 181 259V259C177.284 259 175.426 259 173.871 258.754C165.313 257.398 158.602 250.687 157.246 242.129C157 240.574 157 238.716 157 235V235Z" fill="#F3F4F6"/>
    <path d="M179.589 234.502V236.5H170.841V224.62H173.325V234.502H179.589ZM191.543 230.218V236.5H189.725L189.671 235.078C188.951 236.146 187.781 236.68 186.161 236.68C185.069 236.68 184.109 236.44 183.281 235.96C182.453 235.48 181.805 234.784 181.337 233.872C180.881 232.948 180.653 231.85 180.653 230.578C180.653 229.318 180.887 228.226 181.355 227.302C181.835 226.378 182.507 225.67 183.371 225.178C184.247 224.686 185.267 224.44 186.431 224.44C187.715 224.44 188.759 224.674 189.563 225.142C190.379 225.61 191.021 226.348 191.489 227.356L189.203 228.346C189.023 227.734 188.693 227.272 188.213 226.96C187.745 226.636 187.175 226.474 186.503 226.474C185.471 226.474 184.667 226.828 184.091 227.536C183.515 228.244 183.227 229.252 183.227 230.56C183.227 231.916 183.509 232.942 184.073 233.638C184.637 234.334 185.465 234.682 186.557 234.682C187.397 234.682 188.081 234.484 188.609 234.088C189.137 233.68 189.401 233.092 189.401 232.324V232.054H185.927V230.218H191.543Z" fill="#1F2937"/>
    <path d="M175.637 243.5L174.389 246.5H173.909L172.661 243.5H173.207L174.155 246.014L175.133 243.5H175.637ZM176.504 242.924C176.396 242.924 176.308 242.892 176.24 242.828C176.176 242.76 176.144 242.672 176.144 242.564C176.144 242.456 176.176 242.37 176.24 242.306C176.308 242.238 176.396 242.204 176.504 242.204C176.612 242.204 176.698 242.238 176.762 242.306C176.83 242.37 176.864 242.456 176.864 242.564C176.864 242.672 176.83 242.76 176.762 242.828C176.698 242.892 176.612 242.924 176.504 242.924ZM176.744 246.5H176.264V243.5H176.744V246.5ZM178.878 246.56C178.59 246.56 178.33 246.504 178.098 246.392C177.866 246.276 177.696 246.106 177.588 245.882L177.978 245.612C178.046 245.788 178.164 245.92 178.332 246.008C178.5 246.096 178.698 246.14 178.926 246.14C179.162 246.14 179.342 246.098 179.466 246.014C179.59 245.93 179.652 245.824 179.652 245.696C179.652 245.58 179.594 245.488 179.478 245.42C179.362 245.348 179.158 245.286 178.866 245.234C178.578 245.182 178.35 245.12 178.182 245.048C178.014 244.972 177.892 244.878 177.816 244.766C177.74 244.65 177.702 244.508 177.702 244.34C177.702 244.176 177.75 244.026 177.846 243.89C177.942 243.754 178.08 243.646 178.26 243.566C178.44 243.482 178.648 243.44 178.884 243.44C179.204 243.44 179.46 243.5 179.652 243.62C179.848 243.736 179.988 243.916 180.072 244.16L179.664 244.4C179.6 244.208 179.502 244.07 179.37 243.986C179.242 243.902 179.08 243.86 178.884 243.86C178.688 243.86 178.522 243.904 178.386 243.992C178.25 244.08 178.182 244.182 178.182 244.298C178.182 244.43 178.24 244.532 178.356 244.604C178.476 244.676 178.688 244.738 178.992 244.79C179.408 244.858 179.702 244.96 179.874 245.096C180.046 245.232 180.132 245.424 180.132 245.672C180.132 245.844 180.08 245.998 179.976 246.134C179.876 246.266 179.73 246.37 179.538 246.446C179.35 246.522 179.13 246.56 178.878 246.56ZM183.62 243.5V246.5H183.2L183.17 246.044C182.97 246.388 182.612 246.56 182.096 246.56C181.772 246.56 181.506 246.47 181.298 246.29C181.094 246.11 180.992 245.834 180.992 245.462V243.5H181.472V245.336C181.472 245.628 181.532 245.836 181.652 245.96C181.772 246.08 181.948 246.14 182.18 246.14C182.456 246.14 182.684 246.056 182.864 245.888C183.048 245.72 183.14 245.468 183.14 245.132V243.5H183.62ZM187.197 246.152C187.277 246.152 187.357 246.142 187.437 246.122L187.407 246.5C187.295 246.54 187.175 246.56 187.047 246.56C186.891 246.56 186.767 246.526 186.675 246.458C186.587 246.39 186.531 246.276 186.507 246.116C186.415 246.256 186.279 246.366 186.099 246.446C185.923 246.522 185.737 246.56 185.541 246.56C185.245 246.56 185.001 246.492 184.809 246.356C184.617 246.216 184.521 246.016 184.521 245.756C184.521 245.528 184.621 245.332 184.821 245.168C185.021 245 185.311 244.884 185.691 244.82L186.489 244.688V244.52C186.489 244.32 186.427 244.16 186.303 244.04C186.179 243.92 186.007 243.86 185.787 243.86C185.587 243.86 185.413 243.908 185.265 244.004C185.121 244.1 185.009 244.242 184.929 244.43L184.575 244.172C184.655 243.948 184.803 243.77 185.019 243.638C185.239 243.506 185.495 243.44 185.787 243.44C186.143 243.44 186.429 243.526 186.645 243.698C186.861 243.87 186.969 244.124 186.969 244.46V245.936C186.969 246.008 186.987 246.062 187.023 246.098C187.059 246.134 187.117 246.152 187.197 246.152ZM185.565 246.14C185.817 246.14 186.033 246.08 186.213 245.96C186.397 245.84 186.489 245.684 186.489 245.492V245.078L185.817 245.204C185.549 245.252 185.349 245.322 185.217 245.414C185.085 245.502 185.019 245.616 185.019 245.756C185.019 245.88 185.067 245.976 185.163 246.044C185.259 246.108 185.393 246.14 185.565 246.14ZM188.591 245.696C188.591 245.848 188.613 245.954 188.657 246.014C188.705 246.07 188.791 246.098 188.915 246.098C188.999 246.098 189.071 246.092 189.131 246.08C189.195 246.068 189.269 246.046 189.353 246.014L189.275 246.476C189.143 246.532 188.995 246.56 188.831 246.56C188.587 246.56 188.405 246.494 188.285 246.362C188.169 246.23 188.111 246.028 188.111 245.756V242.12H188.591V245.696Z" fill="#1F2937"/>
  </g>

  <g id="me" class="fill-current">
    <path d="M212 235C212 231.284 212 229.426 212.246 227.871C213.602 219.313 220.313 212.602 228.871 211.246C230.426 211 232.284 211 236 211V211C239.716 211 241.574 211 243.129 211.246C251.687 212.602 258.398 219.313 259.754 227.871C260 229.426 260 231.284 260 235V235C260 238.716 260 240.574 259.754 242.129C258.398 250.687 251.687 257.398 243.129 258.754C241.574 259 239.716 259 236 259V259C232.284 259 230.426 259 228.871 258.754C220.313 257.398 213.602 250.687 212.246 242.129C212 240.574 212 238.716 212 235V235Z" fill="#F3F4F6"/>
    <path d="M235.232 230.218V236.5H233.414L233.36 235.078C232.64 236.146 231.47 236.68 229.85 236.68C228.758 236.68 227.798 236.44 226.97 235.96C226.142 235.48 225.494 234.784 225.026 233.872C224.57 232.948 224.342 231.85 224.342 230.578C224.342 229.318 224.576 228.226 225.044 227.302C225.524 226.378 226.196 225.67 227.06 225.178C227.936 224.686 228.956 224.44 230.12 224.44C231.404 224.44 232.448 224.674 233.252 225.142C234.068 225.61 234.71 226.348 235.178 227.356L232.892 228.346C232.712 227.734 232.382 227.272 231.902 226.96C231.434 226.636 230.864 226.474 230.192 226.474C229.16 226.474 228.356 226.828 227.78 227.536C227.204 228.244 226.916 229.252 226.916 230.56C226.916 231.916 227.198 232.942 227.762 233.638C228.326 234.334 229.154 234.682 230.246 234.682C231.086 234.682 231.77 234.484 232.298 234.088C232.826 233.68 233.09 233.092 233.09 232.324V232.054H229.616V230.218H235.232ZM242.12 231.064L240.428 232.99V236.5H237.944V224.62H240.428V230.254L245.306 224.62H248.186L243.92 229.462L248.33 236.5H245.486L242.12 231.064Z" fill="#1F2937"/>
    <path d="M226.444 243.44C226.864 243.44 227.196 243.58 227.44 243.86C227.688 244.136 227.812 244.516 227.812 245C227.812 245.484 227.688 245.866 227.44 246.146C227.196 246.422 226.864 246.56 226.444 246.56C226.224 246.56 226.026 246.512 225.85 246.416C225.678 246.32 225.544 246.192 225.448 246.032V247.76H224.968V243.5H225.388L225.418 244.022C225.506 243.846 225.64 243.706 225.82 243.602C226.004 243.494 226.212 243.44 226.444 243.44ZM226.39 246.14C226.682 246.14 226.912 246.038 227.08 245.834C227.248 245.626 227.332 245.348 227.332 245C227.332 244.652 227.248 244.376 227.08 244.172C226.912 243.964 226.682 243.86 226.39 243.86C226.102 243.86 225.872 243.96 225.7 244.16C225.532 244.36 225.448 244.628 225.448 244.964V245.036C225.448 245.372 225.532 245.64 225.7 245.84C225.872 246.04 226.102 246.14 226.39 246.14ZM230.163 243.44C230.307 243.44 230.417 243.46 230.493 243.5L230.397 243.968C230.301 243.916 230.175 243.89 230.019 243.89C229.891 243.89 229.765 243.928 229.641 244.004C229.521 244.076 229.421 244.188 229.341 244.34C229.265 244.488 229.227 244.668 229.227 244.88V246.5H228.747V243.5H229.137L229.203 243.992C229.371 243.624 229.691 243.44 230.163 243.44ZM232.369 243.44C232.821 243.44 233.175 243.578 233.431 243.854C233.691 244.13 233.821 244.512 233.821 245C233.821 245.488 233.691 245.87 233.431 246.146C233.175 246.422 232.821 246.56 232.369 246.56C231.917 246.56 231.561 246.422 231.301 246.146C231.045 245.87 230.917 245.488 230.917 245C230.917 244.512 231.045 244.13 231.301 243.854C231.561 243.578 231.917 243.44 232.369 243.44ZM232.369 243.854C232.065 243.854 231.827 243.956 231.655 244.16C231.483 244.364 231.397 244.644 231.397 245C231.397 245.356 231.483 245.636 231.655 245.84C231.827 246.044 232.065 246.146 232.369 246.146C232.673 246.146 232.911 246.044 233.083 245.84C233.255 245.636 233.341 245.356 233.341 245C233.341 244.644 233.255 244.364 233.083 244.16C232.911 243.956 232.673 243.854 232.369 243.854ZM237.417 242.12V246.5H236.997L236.967 245.978C236.879 246.154 236.743 246.296 236.559 246.404C236.379 246.508 236.173 246.56 235.941 246.56C235.521 246.56 235.187 246.422 234.939 246.146C234.695 245.866 234.573 245.484 234.573 245C234.573 244.516 234.695 244.136 234.939 243.86C235.187 243.58 235.521 243.44 235.941 243.44C236.161 243.44 236.357 243.488 236.529 243.584C236.705 243.68 236.841 243.808 236.937 243.968V242.12H237.417ZM235.995 246.14C236.283 246.14 236.511 246.04 236.679 245.84C236.851 245.64 236.937 245.372 236.937 245.036V244.964C236.937 244.628 236.851 244.36 236.679 244.16C236.511 243.96 236.283 243.86 235.995 243.86C235.703 243.86 235.473 243.964 235.305 244.172C235.137 244.376 235.053 244.652 235.053 245C235.053 245.348 235.137 245.626 235.305 245.834C235.473 246.038 235.703 246.14 235.995 246.14ZM241.131 243.5V246.5H240.711L240.681 246.044C240.481 246.388 240.123 246.56 239.607 246.56C239.283 246.56 239.017 246.47 238.809 246.29C238.605 246.11 238.503 245.834 238.503 245.462V243.5H238.983V245.336C238.983 245.628 239.043 245.836 239.163 245.96C239.283 246.08 239.459 246.14 239.691 246.14C239.967 246.14 240.195 246.056 240.375 245.888C240.559 245.72 240.651 245.468 240.651 245.132V243.5H241.131ZM243.513 243.44C243.813 243.44 244.065 243.51 244.269 243.65C244.477 243.786 244.639 243.982 244.755 244.238L244.299 244.454C244.171 244.058 243.905 243.86 243.501 243.86C243.201 243.86 242.965 243.962 242.793 244.166C242.625 244.366 242.541 244.644 242.541 245C242.541 245.356 242.625 245.636 242.793 245.84C242.965 246.04 243.201 246.14 243.501 246.14C243.733 246.14 243.919 246.088 244.059 245.984C244.203 245.876 244.297 245.722 244.341 245.522L244.785 245.678C244.681 245.958 244.521 246.176 244.305 246.332C244.089 246.484 243.825 246.56 243.513 246.56C243.061 246.56 242.705 246.422 242.445 246.146C242.189 245.87 242.061 245.488 242.061 245C242.061 244.512 242.189 244.13 242.445 243.854C242.705 243.578 243.061 243.44 243.513 243.44ZM247.47 246.29C247.27 246.47 247.012 246.56 246.696 246.56C246.452 246.56 246.252 246.494 246.096 246.362C245.944 246.23 245.866 246.028 245.862 245.756V243.914H245.262V243.5H245.862V242.78L246.342 242.648V243.5H247.452V243.914H246.342V245.672C246.342 245.816 246.382 245.926 246.462 246.002C246.546 246.074 246.656 246.11 246.792 246.11C246.984 246.11 247.154 246.036 247.302 245.888L247.47 246.29Z" fill="#1F2937"/>
  </g>

  <g id="team-member-top">
    <path d="M185 199C185 195.284 185 193.426 185.246 191.871C186.602 183.313 193.313 176.602 201.871 175.246C203.426 175 205.284 175 209 175V175C212.716 175 214.574 175 216.129 175.246C224.687 176.602 231.398 183.313 232.754 191.871C233 193.426 233 195.284 233 199V199C233 202.716 233 204.574 232.754 206.129C231.398 214.687 224.687 221.398 216.129 222.754C214.574 223 212.716 223 209 223V223C205.284 223 203.426 223 201.871 222.754C193.313 221.398 186.602 214.687 185.246 206.129C185 204.574 185 202.716 185 199V199Z" fill="#F3F4F6"/>
    <path d="M206.391 196.126C206.391 197.554 205.983 198.67 205.167 199.474C204.351 200.278 203.205 200.68 201.729 200.68C200.361 200.68 199.323 200.368 198.615 199.744C197.907 199.108 197.553 198.244 197.553 197.152C197.553 196.816 197.589 196.462 197.661 196.09L200.091 195.658C200.043 195.994 200.019 196.33 200.019 196.666C200.019 197.35 200.163 197.854 200.451 198.178C200.739 198.49 201.189 198.646 201.801 198.646C202.569 198.646 203.109 198.418 203.421 197.962C203.745 197.494 203.907 196.768 203.907 195.784V188.62H206.391V196.126ZM219.506 200.5H216.662L212.504 193.516L211.478 191.518H211.46L211.532 193.624V200.5H209.3V188.62H212.126L216.284 195.586L217.31 197.602H217.346L217.274 195.496V188.62H219.506V200.5Z" fill="#1F2937"/>
    <path d="M199.444 207.44C199.864 207.44 200.196 207.58 200.44 207.86C200.688 208.136 200.812 208.516 200.812 209C200.812 209.484 200.688 209.866 200.44 210.146C200.196 210.422 199.864 210.56 199.444 210.56C199.224 210.56 199.026 210.512 198.85 210.416C198.678 210.32 198.544 210.192 198.448 210.032V211.76H197.968V207.5H198.388L198.418 208.022C198.506 207.846 198.64 207.706 198.82 207.602C199.004 207.494 199.212 207.44 199.444 207.44ZM199.39 210.14C199.682 210.14 199.912 210.038 200.08 209.834C200.248 209.626 200.332 209.348 200.332 209C200.332 208.652 200.248 208.376 200.08 208.172C199.912 207.964 199.682 207.86 199.39 207.86C199.102 207.86 198.872 207.96 198.7 208.16C198.532 208.36 198.448 208.628 198.448 208.964V209.036C198.448 209.372 198.532 209.64 198.7 209.84C198.872 210.04 199.102 210.14 199.39 210.14ZM203.163 207.44C203.307 207.44 203.417 207.46 203.493 207.5L203.397 207.968C203.301 207.916 203.175 207.89 203.019 207.89C202.891 207.89 202.765 207.928 202.641 208.004C202.521 208.076 202.421 208.188 202.341 208.34C202.265 208.488 202.227 208.668 202.227 208.88V210.5H201.747V207.5H202.137L202.203 207.992C202.371 207.624 202.691 207.44 203.163 207.44ZM205.369 207.44C205.821 207.44 206.175 207.578 206.431 207.854C206.691 208.13 206.821 208.512 206.821 209C206.821 209.488 206.691 209.87 206.431 210.146C206.175 210.422 205.821 210.56 205.369 210.56C204.917 210.56 204.561 210.422 204.301 210.146C204.045 209.87 203.917 209.488 203.917 209C203.917 208.512 204.045 208.13 204.301 207.854C204.561 207.578 204.917 207.44 205.369 207.44ZM205.369 207.854C205.065 207.854 204.827 207.956 204.655 208.16C204.483 208.364 204.397 208.644 204.397 209C204.397 209.356 204.483 209.636 204.655 209.84C204.827 210.044 205.065 210.146 205.369 210.146C205.673 210.146 205.911 210.044 206.083 209.84C206.255 209.636 206.341 209.356 206.341 209C206.341 208.644 206.255 208.364 206.083 208.16C205.911 207.956 205.673 207.854 205.369 207.854ZM210.417 206.12V210.5H209.997L209.967 209.978C209.879 210.154 209.743 210.296 209.559 210.404C209.379 210.508 209.173 210.56 208.941 210.56C208.521 210.56 208.187 210.422 207.939 210.146C207.695 209.866 207.573 209.484 207.573 209C207.573 208.516 207.695 208.136 207.939 207.86C208.187 207.58 208.521 207.44 208.941 207.44C209.161 207.44 209.357 207.488 209.529 207.584C209.705 207.68 209.841 207.808 209.937 207.968V206.12H210.417ZM208.995 210.14C209.283 210.14 209.511 210.04 209.679 209.84C209.851 209.64 209.937 209.372 209.937 209.036V208.964C209.937 208.628 209.851 208.36 209.679 208.16C209.511 207.96 209.283 207.86 208.995 207.86C208.703 207.86 208.473 207.964 208.305 208.172C208.137 208.376 208.053 208.652 208.053 209C208.053 209.348 208.137 209.626 208.305 209.834C208.473 210.038 208.703 210.14 208.995 210.14ZM214.131 207.5V210.5H213.711L213.681 210.044C213.481 210.388 213.123 210.56 212.607 210.56C212.283 210.56 212.017 210.47 211.809 210.29C211.605 210.11 211.503 209.834 211.503 209.462V207.5H211.983V209.336C211.983 209.628 212.043 209.836 212.163 209.96C212.283 210.08 212.459 210.14 212.691 210.14C212.967 210.14 213.195 210.056 213.375 209.888C213.559 209.72 213.651 209.468 213.651 209.132V207.5H214.131ZM216.513 207.44C216.813 207.44 217.065 207.51 217.269 207.65C217.477 207.786 217.639 207.982 217.755 208.238L217.299 208.454C217.171 208.058 216.905 207.86 216.501 207.86C216.201 207.86 215.965 207.962 215.793 208.166C215.625 208.366 215.541 208.644 215.541 209C215.541 209.356 215.625 209.636 215.793 209.84C215.965 210.04 216.201 210.14 216.501 210.14C216.733 210.14 216.919 210.088 217.059 209.984C217.203 209.876 217.297 209.722 217.341 209.522L217.785 209.678C217.681 209.958 217.521 210.176 217.305 210.332C217.089 210.484 216.825 210.56 216.513 210.56C216.061 210.56 215.705 210.422 215.445 210.146C215.189 209.87 215.061 209.488 215.061 209C215.061 208.512 215.189 208.13 215.445 207.854C215.705 207.578 216.061 207.44 216.513 207.44ZM220.47 210.29C220.27 210.47 220.012 210.56 219.696 210.56C219.452 210.56 219.252 210.494 219.096 210.362C218.944 210.23 218.866 210.028 218.862 209.756V207.914H218.262V207.5H218.862V206.78L219.342 206.648V207.5H220.452V207.914H219.342V209.672C219.342 209.816 219.382 209.926 219.462 210.002C219.546 210.074 219.656 210.11 219.792 210.11C219.984 210.11 220.154 210.036 220.302 209.888L220.47 210.29Z" fill="#1F2937"/>
  </g>

  <g id="text-elements">
    <path d="M181.325 170H180.541V166.944L180.597 165.488H180.589L178.981 170H178.269L176.661 165.488H176.653L176.717 166.944V170H175.925V164.72H177.197L178.261 167.776L178.629 169.032H178.645L179.021 167.776L180.077 164.72H181.325V170ZM183.205 165.328C183.024 165.328 182.883 165.283 182.781 165.192C182.68 165.096 182.629 164.963 182.629 164.792C182.629 164.621 182.68 164.491 182.781 164.4C182.883 164.309 183.024 164.264 183.205 164.264C183.387 164.264 183.525 164.309 183.621 164.4C183.723 164.491 183.773 164.621 183.773 164.792C183.773 164.963 183.723 165.096 183.621 165.192C183.525 165.283 183.387 165.328 183.205 165.328ZM183.629 170H182.773V166H183.629V170ZM189.793 165.92C190.059 165.92 190.305 165.976 190.529 166.088C190.753 166.195 190.931 166.36 191.065 166.584C191.198 166.808 191.265 167.083 191.265 167.408V170H190.409V167.544C190.409 167.229 190.334 166.997 190.185 166.848C190.035 166.699 189.835 166.624 189.585 166.624C189.291 166.624 189.043 166.731 188.841 166.944C188.643 167.157 188.545 167.451 188.545 167.824V170H187.689V167.544C187.689 167.229 187.614 166.997 187.465 166.848C187.315 166.699 187.115 166.624 186.865 166.624C186.694 166.624 186.529 166.669 186.369 166.76C186.209 166.845 186.078 166.981 185.977 167.168C185.875 167.355 185.825 167.589 185.825 167.872V170H184.969V166H185.729L185.769 166.664C185.902 166.419 186.083 166.235 186.313 166.112C186.542 165.984 186.793 165.92 187.065 165.92C187.363 165.92 187.633 165.989 187.873 166.128C188.118 166.261 188.299 166.459 188.417 166.72C188.539 166.459 188.726 166.261 188.977 166.128C189.233 165.989 189.505 165.92 189.793 165.92ZM192.994 165.328C192.813 165.328 192.672 165.283 192.57 165.192C192.469 165.096 192.418 164.963 192.418 164.792C192.418 164.621 192.469 164.491 192.57 164.4C192.672 164.309 192.813 164.264 192.994 164.264C193.176 164.264 193.314 164.309 193.41 164.4C193.512 164.491 193.562 164.621 193.562 164.792C193.562 164.963 193.512 165.096 193.41 165.192C193.314 165.283 193.176 165.328 192.994 165.328ZM193.418 170H192.562V166H193.418V170ZM201.063 164.2V170H200.311L200.263 169.288C200.146 169.528 199.967 169.72 199.727 169.864C199.493 170.008 199.223 170.08 198.919 170.08C198.37 170.08 197.935 169.899 197.615 169.536C197.301 169.168 197.143 168.659 197.143 168.008C197.143 167.357 197.301 166.848 197.615 166.48C197.935 166.107 198.37 165.92 198.919 165.92C199.213 165.92 199.471 165.987 199.695 166.12C199.919 166.248 200.09 166.424 200.207 166.648V164.2H201.063ZM199.111 169.392C199.447 169.392 199.714 169.272 199.911 169.032C200.109 168.792 200.207 168.464 200.207 168.048V167.952C200.207 167.536 200.109 167.211 199.911 166.976C199.714 166.736 199.447 166.616 199.111 166.616C198.765 166.616 198.493 166.739 198.295 166.984C198.103 167.224 198.007 167.563 198.007 168C198.007 168.437 198.103 168.779 198.295 169.024C198.493 169.269 198.765 169.392 199.111 169.392ZM205.967 167.88C205.967 168.035 205.956 168.181 205.935 168.32H203.007C203.055 168.672 203.18 168.941 203.383 169.128C203.585 169.309 203.847 169.4 204.167 169.4C204.428 169.4 204.644 169.355 204.815 169.264C204.991 169.168 205.111 169.032 205.175 168.856L205.887 169.152C205.588 169.771 205.015 170.08 204.167 170.08C203.537 170.08 203.044 169.896 202.687 169.528C202.335 169.16 202.159 168.651 202.159 168C202.159 167.344 202.329 166.835 202.671 166.472C203.012 166.104 203.492 165.92 204.111 165.92C204.697 165.92 205.153 166.099 205.479 166.456C205.804 166.813 205.967 167.288 205.967 167.88ZM204.111 166.6C203.801 166.6 203.551 166.691 203.359 166.872C203.172 167.053 203.055 167.317 203.007 167.664H205.167C205.124 167.328 205.009 167.067 204.823 166.88C204.641 166.693 204.404 166.6 204.111 166.6ZM208.487 170.08C208.082 170.08 207.722 170.011 207.407 169.872C207.098 169.733 206.863 169.523 206.703 169.24L207.279 168.744C207.38 168.973 207.538 169.141 207.751 169.248C207.964 169.355 208.22 169.408 208.519 169.408C208.791 169.408 209.002 169.365 209.151 169.28C209.3 169.189 209.375 169.072 209.375 168.928C209.375 168.8 209.306 168.699 209.167 168.624C209.028 168.544 208.788 168.469 208.447 168.4C207.855 168.288 207.439 168.139 207.199 167.952C206.959 167.765 206.839 167.501 206.839 167.16C206.839 166.941 206.906 166.739 207.039 166.552C207.172 166.36 207.364 166.208 207.615 166.096C207.871 165.979 208.172 165.92 208.519 165.92C208.962 165.92 209.316 165.995 209.583 166.144C209.85 166.288 210.055 166.515 210.199 166.824L209.591 167.272C209.495 167.037 209.359 166.867 209.183 166.76C209.012 166.648 208.794 166.592 208.527 166.592C208.287 166.592 208.087 166.643 207.927 166.744C207.772 166.84 207.695 166.952 207.695 167.08C207.695 167.224 207.764 167.339 207.903 167.424C208.047 167.509 208.306 167.587 208.679 167.656C209.244 167.757 209.644 167.901 209.879 168.088C210.114 168.275 210.231 168.536 210.231 168.872C210.231 169.229 210.076 169.52 209.767 169.744C209.458 169.968 209.031 170.08 208.487 170.08ZM211.705 165.328C211.524 165.328 211.383 165.283 211.281 165.192C211.18 165.096 211.129 164.963 211.129 164.792C211.129 164.621 211.18 164.491 211.281 164.4C211.383 164.309 211.524 164.264 211.705 164.264C211.887 164.264 212.025 164.309 212.121 164.4C212.223 164.491 212.273 164.621 212.273 164.792C212.273 164.963 212.223 165.096 212.121 165.192C212.025 165.283 211.887 165.328 211.705 165.328ZM212.129 170H211.273V166H212.129V170ZM215.797 169.376C216.202 169.376 216.517 169.467 216.741 169.648C216.965 169.829 217.077 170.08 217.077 170.4C217.077 170.672 216.986 170.907 216.805 171.104C216.629 171.301 216.383 171.453 216.069 171.56C215.759 171.667 215.41 171.72 215.021 171.72C214.386 171.72 213.909 171.627 213.589 171.44C213.274 171.253 213.117 171.005 213.117 170.696C213.117 170.515 213.178 170.355 213.301 170.216C213.429 170.083 213.605 169.987 213.829 169.928C213.658 169.848 213.522 169.747 213.421 169.624C213.319 169.496 213.269 169.344 213.269 169.168C213.269 168.779 213.477 168.512 213.893 168.368C213.69 168.251 213.535 168.099 213.429 167.912C213.327 167.725 213.277 167.512 213.277 167.272C213.277 167.005 213.349 166.771 213.493 166.568C213.637 166.36 213.839 166.2 214.101 166.088C214.367 165.976 214.671 165.92 215.013 165.92C215.306 165.92 215.575 165.963 215.821 166.048C215.895 165.755 216.029 165.533 216.221 165.384C216.418 165.229 216.677 165.155 216.997 165.16L217.141 165.824C216.885 165.819 216.677 165.851 216.517 165.92C216.362 165.989 216.255 166.093 216.197 166.232C216.373 166.355 216.509 166.504 216.605 166.68C216.701 166.856 216.749 167.053 216.749 167.272C216.749 167.683 216.589 168.011 216.269 168.256C215.954 168.501 215.535 168.624 215.013 168.624C214.767 168.624 214.546 168.6 214.349 168.552C214.215 168.584 214.117 168.637 214.053 168.712C213.994 168.781 213.965 168.875 213.965 168.992C213.965 169.115 214.007 169.211 214.093 169.28C214.183 169.344 214.306 169.376 214.461 169.376H215.797ZM215.013 166.52C214.767 166.52 214.562 166.592 214.397 166.736C214.231 166.875 214.149 167.053 214.149 167.272C214.149 167.496 214.231 167.68 214.397 167.824C214.562 167.963 214.767 168.032 215.013 168.032C215.263 168.032 215.469 167.963 215.629 167.824C215.794 167.68 215.877 167.496 215.877 167.272C215.877 167.048 215.794 166.867 215.629 166.728C215.469 166.589 215.263 166.52 215.013 166.52ZM215.101 171.08C215.49 171.08 215.794 171.024 216.013 170.912C216.231 170.8 216.341 170.661 216.341 170.496C216.341 170.363 216.287 170.261 216.181 170.192C216.074 170.123 215.895 170.088 215.645 170.088H214.565C214.325 170.088 214.143 170.125 214.021 170.2C213.903 170.275 213.845 170.379 213.845 170.512C213.845 170.693 213.949 170.832 214.157 170.928C214.37 171.029 214.685 171.08 215.101 171.08ZM220.05 165.92C220.493 165.92 220.853 166.048 221.13 166.304C221.413 166.56 221.554 166.928 221.554 167.408V170H220.698V167.68C220.698 166.976 220.413 166.624 219.842 166.624C219.544 166.624 219.288 166.728 219.074 166.936C218.861 167.139 218.754 167.453 218.754 167.88V170H217.898V166H218.658L218.698 166.664C218.832 166.413 219.016 166.227 219.25 166.104C219.485 165.981 219.752 165.92 220.05 165.92ZM227.92 169.736C227.792 169.843 227.635 169.928 227.448 169.992C227.267 170.051 227.069 170.08 226.856 170.08C226.488 170.08 226.192 169.989 225.968 169.808C225.749 169.621 225.637 169.333 225.632 168.944V166.672H224.872V166H225.632V165.064L226.488 164.824V166H227.888V166.672H226.488V168.8C226.488 168.992 226.539 169.136 226.64 169.232C226.747 169.323 226.891 169.368 227.072 169.368C227.317 169.368 227.533 169.283 227.72 169.112L227.92 169.736ZM232.295 167.88C232.295 168.035 232.284 168.181 232.263 168.32H229.335C229.383 168.672 229.508 168.941 229.711 169.128C229.913 169.309 230.175 169.4 230.495 169.4C230.756 169.4 230.972 169.355 231.143 169.264C231.319 169.168 231.439 169.032 231.503 168.856L232.215 169.152C231.916 169.771 231.343 170.08 230.495 170.08C229.865 170.08 229.372 169.896 229.015 169.528C228.663 169.16 228.487 168.651 228.487 168C228.487 167.344 228.657 166.835 228.999 166.472C229.34 166.104 229.82 165.92 230.439 165.92C231.025 165.92 231.481 166.099 231.807 166.456C232.132 166.813 232.295 167.288 232.295 167.88ZM230.439 166.6C230.129 166.6 229.879 166.691 229.687 166.872C229.5 167.053 229.383 167.317 229.335 167.664H231.495C231.452 167.328 231.337 167.067 231.151 166.88C230.969 166.693 230.732 166.6 230.439 166.6ZM236.823 169.44C236.94 169.44 237.039 169.429 237.119 169.408L237.063 169.984C236.919 170.048 236.754 170.08 236.567 170.08C236.338 170.08 236.154 170.035 236.015 169.944C235.882 169.853 235.794 169.701 235.751 169.488C235.628 169.675 235.447 169.821 235.207 169.928C234.967 170.029 234.698 170.08 234.399 170.08C234.01 170.08 233.695 169.989 233.455 169.808C233.215 169.627 233.095 169.368 233.095 169.032C233.095 168.717 233.226 168.453 233.487 168.24C233.748 168.021 234.138 167.867 234.655 167.776L235.671 167.6V167.384C235.671 167.139 235.599 166.947 235.455 166.808C235.311 166.664 235.111 166.592 234.855 166.592C234.327 166.592 233.983 166.832 233.823 167.312L233.159 166.96C233.255 166.64 233.45 166.387 233.743 166.2C234.042 166.013 234.407 165.92 234.839 165.92C235.356 165.92 235.767 166.04 236.071 166.28C236.375 166.52 236.527 166.872 236.527 167.336V169.144C236.527 169.245 236.548 169.32 236.591 169.368C236.639 169.416 236.716 169.44 236.823 169.44ZM234.583 169.432C234.871 169.432 235.124 169.363 235.343 169.224C235.562 169.085 235.671 168.901 235.671 168.672V168.192L234.799 168.368C234.522 168.421 234.316 168.496 234.183 168.592C234.05 168.688 233.983 168.816 233.983 168.976C233.983 169.125 234.034 169.24 234.135 169.32C234.242 169.395 234.391 169.432 234.583 169.432ZM242.754 165.92C243.02 165.92 243.266 165.976 243.49 166.088C243.714 166.195 243.892 166.36 244.026 166.584C244.159 166.808 244.226 167.083 244.226 167.408V170H243.37V167.544C243.37 167.229 243.295 166.997 243.146 166.848C242.996 166.699 242.796 166.624 242.546 166.624C242.252 166.624 242.004 166.731 241.802 166.944C241.604 167.157 241.506 167.451 241.506 167.824V170H240.65V167.544C240.65 167.229 240.575 166.997 240.426 166.848C240.276 166.699 240.076 166.624 239.826 166.624C239.655 166.624 239.49 166.669 239.33 166.76C239.17 166.845 239.039 166.981 238.938 167.168C238.836 167.355 238.786 167.589 238.786 167.872V170H237.93V166H238.69L238.73 166.664C238.863 166.419 239.044 166.235 239.274 166.112C239.503 165.984 239.754 165.92 240.026 165.92C240.324 165.92 240.594 165.989 240.834 166.128C241.079 166.261 241.26 166.459 241.378 166.72C241.5 166.459 241.687 166.261 241.938 166.128C242.194 165.989 242.466 165.92 242.754 165.92Z" fill="white"/>
    <path d="M182.465 106.6C182.305 107.075 182.03 107.44 181.641 107.696C181.257 107.952 180.803 108.08 180.281 108.08C179.774 108.08 179.334 107.971 178.961 107.752C178.587 107.533 178.299 107.219 178.097 106.808C177.894 106.397 177.793 105.915 177.793 105.36C177.793 104.805 177.894 104.323 178.097 103.912C178.299 103.501 178.587 103.187 178.961 102.968C179.334 102.749 179.771 102.64 180.273 102.64C180.801 102.64 181.243 102.749 181.601 102.968C181.963 103.187 182.225 103.509 182.385 103.936L181.577 104.296C181.47 103.981 181.315 103.752 181.113 103.608C180.91 103.459 180.646 103.384 180.321 103.384C179.825 103.384 179.427 103.56 179.129 103.912C178.835 104.259 178.689 104.741 178.689 105.36C178.689 105.984 178.83 106.469 179.113 106.816C179.395 107.163 179.787 107.336 180.289 107.336C180.63 107.336 180.915 107.251 181.145 107.08C181.379 106.909 181.547 106.659 181.649 106.328L182.465 106.6ZM185.197 103.92C185.821 103.92 186.309 104.104 186.661 104.472C187.013 104.84 187.189 105.349 187.189 106C187.189 106.651 187.013 107.16 186.661 107.528C186.309 107.896 185.821 108.08 185.197 108.08C184.573 108.08 184.085 107.896 183.733 107.528C183.381 107.16 183.205 106.651 183.205 106C183.205 105.349 183.381 104.84 183.733 104.472C184.085 104.104 184.573 103.92 185.197 103.92ZM185.197 104.592C184.835 104.592 184.555 104.715 184.357 104.96C184.165 105.2 184.069 105.547 184.069 106C184.069 106.453 184.165 106.803 184.357 107.048C184.555 107.288 184.835 107.408 185.197 107.408C185.56 107.408 185.84 107.285 186.037 107.04C186.235 106.795 186.333 106.448 186.333 106C186.333 105.552 186.235 105.205 186.037 104.96C185.84 104.715 185.56 104.592 185.197 104.592ZM189.121 106.832C189.121 107.029 189.15 107.168 189.209 107.248C189.268 107.323 189.377 107.36 189.537 107.36C189.638 107.36 189.724 107.355 189.793 107.344C189.868 107.328 189.958 107.299 190.065 107.256L189.969 107.944C189.788 108.035 189.566 108.08 189.305 108.08C188.948 108.08 188.684 107.989 188.513 107.808C188.348 107.627 188.265 107.341 188.265 106.952V102.2H189.121V106.832ZM191.613 106.832C191.613 107.029 191.643 107.168 191.701 107.248C191.76 107.323 191.869 107.36 192.029 107.36C192.131 107.36 192.216 107.355 192.285 107.344C192.36 107.328 192.451 107.299 192.557 107.256L192.461 107.944C192.28 108.035 192.059 108.08 191.797 108.08C191.44 108.08 191.176 107.989 191.005 107.808C190.84 107.627 190.757 107.341 190.757 106.952V102.2H191.613V106.832ZM196.737 107.44C196.855 107.44 196.953 107.429 197.033 107.408L196.977 107.984C196.833 108.048 196.668 108.08 196.481 108.08C196.252 108.08 196.068 108.035 195.929 107.944C195.796 107.853 195.708 107.701 195.665 107.488C195.543 107.675 195.361 107.821 195.121 107.928C194.881 108.029 194.612 108.08 194.313 108.08C193.924 108.08 193.609 107.989 193.369 107.808C193.129 107.627 193.009 107.368 193.009 107.032C193.009 106.717 193.14 106.453 193.401 106.24C193.663 106.021 194.052 105.867 194.569 105.776L195.585 105.6V105.384C195.585 105.139 195.513 104.947 195.369 104.808C195.225 104.664 195.025 104.592 194.769 104.592C194.241 104.592 193.897 104.832 193.737 105.312L193.073 104.96C193.169 104.64 193.364 104.387 193.657 104.2C193.956 104.013 194.321 103.92 194.753 103.92C195.271 103.92 195.681 104.04 195.985 104.28C196.289 104.52 196.441 104.872 196.441 105.336V107.144C196.441 107.245 196.463 107.32 196.505 107.368C196.553 107.416 196.631 107.44 196.737 107.44ZM194.497 107.432C194.785 107.432 195.039 107.363 195.257 107.224C195.476 107.085 195.585 106.901 195.585 106.672V106.192L194.713 106.368C194.436 106.421 194.231 106.496 194.097 106.592C193.964 106.688 193.897 106.816 193.897 106.976C193.897 107.125 193.948 107.24 194.049 107.32C194.156 107.395 194.305 107.432 194.497 107.432ZM199.996 103.92C200.545 103.92 200.977 104.107 201.292 104.48C201.606 104.848 201.764 105.357 201.764 106.008C201.764 106.659 201.606 107.168 201.292 107.536C200.977 107.899 200.545 108.08 199.996 108.08C199.681 108.08 199.404 108.005 199.164 107.856C198.929 107.707 198.753 107.507 198.636 107.256L198.596 108H197.844V102.2H198.7V104.64C198.822 104.416 198.996 104.24 199.22 104.112C199.449 103.984 199.708 103.92 199.996 103.92ZM199.804 107.392C200.15 107.392 200.42 107.269 200.612 107.024C200.809 106.779 200.908 106.437 200.908 106C200.908 105.563 200.809 105.224 200.612 104.984C200.42 104.739 200.15 104.616 199.804 104.616C199.478 104.616 199.217 104.725 199.02 104.944C198.828 105.163 198.721 105.464 198.7 105.848V106.152C198.721 106.541 198.828 106.845 199.02 107.064C199.217 107.283 199.478 107.392 199.804 107.392ZM204.635 103.92C205.259 103.92 205.747 104.104 206.099 104.472C206.451 104.84 206.627 105.349 206.627 106C206.627 106.651 206.451 107.16 206.099 107.528C205.747 107.896 205.259 108.08 204.635 108.08C204.011 108.08 203.523 107.896 203.171 107.528C202.819 107.16 202.643 106.651 202.643 106C202.643 105.349 202.819 104.84 203.171 104.472C203.523 104.104 204.011 103.92 204.635 103.92ZM204.635 104.592C204.272 104.592 203.992 104.715 203.795 104.96C203.603 105.2 203.507 105.547 203.507 106C203.507 106.453 203.603 106.803 203.795 107.048C203.992 107.288 204.272 107.408 204.635 107.408C204.998 107.408 205.278 107.285 205.475 107.04C205.672 106.795 205.771 106.448 205.771 106C205.771 105.552 205.672 105.205 205.475 104.96C205.278 104.715 204.998 104.592 204.635 104.592ZM209.791 103.92C209.977 103.92 210.124 103.947 210.231 104L210.095 104.784C209.972 104.715 209.804 104.68 209.591 104.68C209.42 104.68 209.257 104.725 209.103 104.816C208.953 104.907 208.828 105.043 208.727 105.224C208.631 105.405 208.583 105.624 208.583 105.88V108H207.727V104H208.455L208.527 104.72C208.751 104.187 209.172 103.92 209.791 103.92ZM214.409 107.44C214.526 107.44 214.625 107.429 214.705 107.408L214.649 107.984C214.505 108.048 214.34 108.08 214.153 108.08C213.924 108.08 213.74 108.035 213.601 107.944C213.468 107.853 213.38 107.701 213.337 107.488C213.214 107.675 213.033 107.821 212.793 107.928C212.553 108.029 212.284 108.08 211.985 108.08C211.596 108.08 211.281 107.989 211.041 107.808C210.801 107.627 210.681 107.368 210.681 107.032C210.681 106.717 210.812 106.453 211.073 106.24C211.334 106.021 211.724 105.867 212.241 105.776L213.257 105.6V105.384C213.257 105.139 213.185 104.947 213.041 104.808C212.897 104.664 212.697 104.592 212.441 104.592C211.913 104.592 211.569 104.832 211.409 105.312L210.745 104.96C210.841 104.64 211.036 104.387 211.329 104.2C211.628 104.013 211.993 103.92 212.425 103.92C212.942 103.92 213.353 104.04 213.657 104.28C213.961 104.52 214.113 104.872 214.113 105.336V107.144C214.113 107.245 214.134 107.32 214.177 107.368C214.225 107.416 214.302 107.44 214.409 107.44ZM212.169 107.432C212.457 107.432 212.71 107.363 212.929 107.224C213.148 107.085 213.257 106.901 213.257 106.672V106.192L212.385 106.368C212.108 106.421 211.902 106.496 211.769 106.592C211.636 106.688 211.569 106.816 211.569 106.976C211.569 107.125 211.62 107.24 211.721 107.32C211.828 107.395 211.977 107.432 212.169 107.432ZM217.951 107.736C217.823 107.843 217.666 107.928 217.479 107.992C217.298 108.051 217.101 108.08 216.887 108.08C216.519 108.08 216.223 107.989 215.999 107.808C215.781 107.621 215.669 107.333 215.663 106.944V104.672H214.903V104H215.663V103.064L216.519 102.824V104H217.919V104.672H216.519V106.8C216.519 106.992 216.57 107.136 216.671 107.232C216.778 107.323 216.922 107.368 217.103 107.368C217.349 107.368 217.565 107.283 217.751 107.112L217.951 107.736ZM222.326 105.88C222.326 106.035 222.315 106.181 222.294 106.32H219.366C219.414 106.672 219.539 106.941 219.742 107.128C219.945 107.309 220.206 107.4 220.526 107.4C220.787 107.4 221.003 107.355 221.174 107.264C221.35 107.168 221.47 107.032 221.534 106.856L222.246 107.152C221.947 107.771 221.374 108.08 220.526 108.08C219.897 108.08 219.403 107.896 219.046 107.528C218.694 107.16 218.518 106.651 218.518 106C218.518 105.344 218.689 104.835 219.03 104.472C219.371 104.104 219.851 103.92 220.47 103.92C221.057 103.92 221.513 104.099 221.838 104.456C222.163 104.813 222.326 105.288 222.326 105.88ZM220.47 104.6C220.161 104.6 219.91 104.691 219.718 104.872C219.531 105.053 219.414 105.317 219.366 105.664H221.526C221.483 105.328 221.369 105.067 221.182 104.88C221.001 104.693 220.763 104.6 220.47 104.6ZM231.9 104L230.564 108H229.628L228.62 104.976L227.66 108H226.724L225.388 104H226.316L227.22 107.2L228.22 104H229.068L230.06 107.2L230.972 104H231.9ZM233.221 103.328C233.04 103.328 232.898 103.283 232.797 103.192C232.696 103.096 232.645 102.963 232.645 102.792C232.645 102.621 232.696 102.491 232.797 102.4C232.898 102.309 233.04 102.264 233.221 102.264C233.402 102.264 233.541 102.309 233.637 102.4C233.738 102.491 233.789 102.621 233.789 102.792C233.789 102.963 233.738 103.096 233.637 103.192C233.541 103.283 233.402 103.328 233.221 103.328ZM233.645 108H232.789V104H233.645V108ZM237.576 107.736C237.448 107.843 237.291 107.928 237.104 107.992C236.923 108.051 236.726 108.08 236.512 108.08C236.144 108.08 235.848 107.989 235.624 107.808C235.406 107.621 235.294 107.333 235.288 106.944V104.672H234.528V104H235.288V103.064L236.144 102.824V104H237.544V104.672H236.144V106.8C236.144 106.992 236.195 107.136 236.296 107.232C236.403 107.323 236.547 107.368 236.728 107.368C236.974 107.368 237.19 107.283 237.376 107.112L237.576 107.736ZM240.558 103.92C241.001 103.92 241.361 104.048 241.638 104.304C241.921 104.56 242.062 104.928 242.062 105.408V108H241.206V105.68C241.206 104.976 240.921 104.624 240.35 104.624C240.052 104.624 239.796 104.728 239.582 104.936C239.369 105.144 239.262 105.461 239.262 105.888V108H238.406V102.2H239.262V104.64C239.396 104.395 239.572 104.213 239.79 104.096C240.014 103.979 240.27 103.92 240.558 103.92Z" fill="white"/>
    <path d="M198.554 45H197.698V39.72H198.554V45ZM202.121 40.92C202.563 40.92 202.923 41.048 203.201 41.304C203.483 41.56 203.625 41.928 203.625 42.408V45H202.769V42.68C202.769 41.976 202.483 41.624 201.913 41.624C201.614 41.624 201.358 41.728 201.145 41.936C200.931 42.1387 200.825 42.4533 200.825 42.88V45H199.969V41H200.729L200.769 41.664C200.902 41.4133 201.086 41.2267 201.321 41.104C201.555 40.9813 201.822 40.92 202.121 40.92ZM206.011 41H207.307V41.672H206.035V45H205.179V41.672H204.427V41H205.179V40.424C205.179 40.0187 205.302 39.704 205.547 39.48C205.792 39.256 206.136 39.144 206.579 39.144C206.739 39.144 206.886 39.1627 207.019 39.2C207.152 39.232 207.256 39.2773 207.331 39.336L207.171 39.96C207.048 39.88 206.896 39.84 206.715 39.84C206.246 39.84 206.011 40.056 206.011 40.488V41ZM209.752 40.92C210.376 40.92 210.864 41.104 211.216 41.472C211.568 41.84 211.744 42.3493 211.744 43C211.744 43.6507 211.568 44.16 211.216 44.528C210.864 44.896 210.376 45.08 209.752 45.08C209.128 45.08 208.64 44.896 208.288 44.528C207.936 44.16 207.76 43.6507 207.76 43C207.76 42.3493 207.936 41.84 208.288 41.472C208.64 41.104 209.128 40.92 209.752 40.92ZM209.752 41.592C209.389 41.592 209.109 41.7147 208.912 41.96C208.72 42.2 208.624 42.5467 208.624 43C208.624 43.4533 208.72 43.8027 208.912 44.048C209.109 44.288 209.389 44.408 209.752 44.408C210.115 44.408 210.395 44.2853 210.592 44.04C210.789 43.7947 210.888 43.448 210.888 43C210.888 42.552 210.789 42.2053 210.592 41.96C210.395 41.7147 210.115 41.592 209.752 41.592ZM214.908 40.92C215.094 40.92 215.241 40.9467 215.348 41L215.212 41.784C215.089 41.7147 214.921 41.68 214.708 41.68C214.537 41.68 214.374 41.7253 214.22 41.816C214.07 41.9067 213.945 42.0427 213.844 42.224C213.748 42.4053 213.7 42.624 213.7 42.88V45H212.844V41H213.572L213.644 41.72C213.868 41.1867 214.289 40.92 214.908 40.92ZM220.98 40.92C221.247 40.92 221.492 40.976 221.716 41.088C221.94 41.1947 222.119 41.36 222.252 41.584C222.386 41.808 222.452 42.0827 222.452 42.408V45H221.596V42.544C221.596 42.2293 221.522 41.9973 221.372 41.848C221.223 41.6987 221.023 41.624 220.772 41.624C220.479 41.624 220.231 41.7307 220.028 41.944C219.831 42.1573 219.732 42.4507 219.732 42.824V45H218.876V42.544C218.876 42.2293 218.802 41.9973 218.652 41.848C218.503 41.6987 218.303 41.624 218.052 41.624C217.882 41.624 217.716 41.6693 217.556 41.76C217.396 41.8453 217.266 41.9813 217.164 42.168C217.063 42.3547 217.012 42.5893 217.012 42.872V45H216.156V41H216.916L216.956 41.664C217.09 41.4187 217.271 41.2347 217.5 41.112C217.73 40.984 217.98 40.92 218.252 40.92C218.551 40.92 218.82 40.9893 219.06 41.128C219.306 41.2613 219.487 41.4587 219.604 41.72C219.727 41.4587 219.914 41.2613 220.164 41.128C220.42 40.9893 220.692 40.92 220.98 40.92Z" fill="white"/>
  </g>
</svg>