<svg width="411" height="411" viewBox="0 0 411 411" fill="none" xmlns="http://www.w3.org/2000/svg">
<circle cx="205" cy="205" r="178.5" stroke="#4B5563"/>
<circle cx="205" cy="205" r="118.5" stroke="#4B5563"/>
<circle cx="205" cy="205" r="58.5" stroke="#4B5563"/>
<g filter="url(#filter0_f_201_331)">
<path d="M202.528 29.0171C106.254 30.3474 28.7464 108.932 29.0006 205.463C29.2547 301.995 107.175 380.17 203.454 380.993C204.559 381.003 205.466 381.895 205.469 382.999C205.472 384.104 204.569 385.003 203.465 384.994C104.977 384.176 25.2606 304.214 25.0006 205.474C24.7406 106.734 104.034 26.3532 202.517 25.0169C203.621 25.0019 204.528 25.896 204.531 27.0006C204.534 28.1051 203.632 29.0018 202.528 29.0171Z" fill="url(#paint0_angular_201_331)"/>
</g>
<g filter="url(#filter1_f_201_331)">
<path d="M202.991 29.0112C106.714 30.0881 29 108.468 29 205C29 301.532 106.714 379.912 202.991 380.989C204.095 381.001 205 381.895 205 383C205 384.105 204.095 385.001 202.991 384.989C104.505 383.912 25 303.741 25 205C25 106.259 104.505 26.088 202.991 25.011C204.095 24.9989 205 25.8954 205 27C205 28.1046 204.095 28.9989 202.991 29.0112Z" fill="url(#paint1_angular_201_331)"/>
</g>
<g filter="url(#filter2_f_201_331)">
<path d="M202.991 29.0112C106.714 30.0881 29 108.468 29 205C29 301.532 106.714 379.912 202.991 380.989C204.095 381.001 205 381.895 205 383C205 384.105 204.095 385.001 202.991 384.989C104.505 383.912 25 303.741 25 205C25 106.259 104.505 26.088 202.991 25.011C204.095 24.9989 205 25.8954 205 27C205 28.1046 204.095 28.9989 202.991 29.0112Z" fill="url(#paint2_angular_201_331)"/>
</g>
<g filter="url(#filter3_f_201_331)">
<path d="M202.991 29.0112C106.714 30.0881 29 108.468 29 205C29 301.532 106.714 379.912 202.991 380.989C204.095 381.001 205 381.895 205 383C205 384.105 204.095 385.001 202.991 384.989C104.505 383.912 25 303.741 25 205C25 106.259 104.505 26.088 202.991 25.011C204.095 24.9989 205 25.8954 205 27C205 28.1046 204.095 28.9989 202.991 29.0112Z" fill="url(#paint3_angular_201_331)"/>
</g>
<g filter="url(#filter4_f_201_331)">
<path d="M207.946 381.456C304.22 380.126 381.728 301.541 381.473 205.01C381.219 108.479 303.299 30.3032 207.02 29.4799C205.915 29.4705 205.008 28.5785 205.005 27.474C205.002 26.3694 205.905 25.4705 207.009 25.4797C305.497 26.2974 385.213 106.259 385.473 204.999C385.733 303.74 306.439 384.12 207.957 385.456C206.852 385.471 205.946 384.577 205.943 383.473C205.94 382.368 206.842 381.471 207.946 381.456Z" fill="url(#paint4_angular_201_331)"/>
</g>
<g filter="url(#filter5_f_201_331)">
<path d="M207.483 381.462C303.759 380.385 381.474 302.005 381.474 205.473C381.474 108.942 303.759 30.5615 207.483 29.4846C206.378 29.4722 205.474 28.578 205.474 27.4734C205.474 26.3688 206.378 25.4723 207.483 25.4844C305.969 26.5614 385.474 106.733 385.474 205.473C385.474 304.214 305.969 384.385 207.483 385.462C206.378 385.474 205.474 384.578 205.474 383.473C205.474 382.369 206.378 381.474 207.483 381.462Z" fill="url(#paint5_angular_201_331)"/>
</g>
<g filter="url(#filter6_f_201_331)">
<path d="M207.483 381.462C303.759 380.385 381.474 302.005 381.474 205.473C381.474 108.942 303.759 30.5615 207.483 29.4846C206.378 29.4722 205.474 28.578 205.474 27.4734C205.474 26.3688 206.378 25.4723 207.483 25.4844C305.969 26.5614 385.474 106.733 385.474 205.473C385.474 304.214 305.969 384.385 207.483 385.462C206.378 385.474 205.474 384.578 205.474 383.473C205.474 382.369 206.378 381.474 207.483 381.462Z" fill="url(#paint6_angular_201_331)"/>
</g>
<g filter="url(#filter7_f_201_331)">
<path d="M207.483 381.462C303.759 380.385 381.474 302.005 381.474 205.473C381.474 108.942 303.759 30.5615 207.483 29.4846C206.378 29.4722 205.474 28.578 205.474 27.4734C205.474 26.3688 206.378 25.4723 207.483 25.4844C305.969 26.5614 385.474 106.733 385.474 205.473C385.474 304.214 305.969 384.385 207.483 385.462C206.378 385.474 205.474 384.578 205.474 383.473C205.474 382.369 206.378 381.474 207.483 381.462Z" fill="url(#paint7_angular_201_331)"/>
</g>
<defs>
<filter id="filter0_f_201_331" x="16" y="16.0167" width="198.469" height="377.977" filterUnits="userSpaceOnUse" color-interpolation-filters="sRGB">
<feFlood flood-opacity="0" result="BackgroundImageFix"/>
<feBlend mode="normal" in="SourceGraphic" in2="BackgroundImageFix" result="shape"/>
<feGaussianBlur stdDeviation="4.5" result="effect1_foregroundBlur_201_331"/>
</filter>
<filter id="filter1_f_201_331" x="21" y="21.0109" width="188" height="367.978" filterUnits="userSpaceOnUse" color-interpolation-filters="sRGB">
<feFlood flood-opacity="0" result="BackgroundImageFix"/>
<feBlend mode="normal" in="SourceGraphic" in2="BackgroundImageFix" result="shape"/>
<feGaussianBlur stdDeviation="2" result="effect1_foregroundBlur_201_331"/>
</filter>
<filter id="filter2_f_201_331" x="0" y="0.0108643" width="230" height="409.978" filterUnits="userSpaceOnUse" color-interpolation-filters="sRGB">
<feFlood flood-opacity="0" result="BackgroundImageFix"/>
<feBlend mode="normal" in="SourceGraphic" in2="BackgroundImageFix" result="shape"/>
<feGaussianBlur stdDeviation="12.5" result="effect1_foregroundBlur_201_331"/>
</filter>
<filter id="filter3_f_201_331" x="23" y="23.0109" width="184" height="363.978" filterUnits="userSpaceOnUse" color-interpolation-filters="sRGB">
<feFlood flood-opacity="0" result="BackgroundImageFix"/>
<feBlend mode="normal" in="SourceGraphic" in2="BackgroundImageFix" result="shape"/>
<feGaussianBlur stdDeviation="1" result="effect1_foregroundBlur_201_331"/>
</filter>
<filter id="filter4_f_201_331" x="196.005" y="16.4796" width="198.469" height="377.977" filterUnits="userSpaceOnUse" color-interpolation-filters="sRGB">
<feFlood flood-opacity="0" result="BackgroundImageFix"/>
<feBlend mode="normal" in="SourceGraphic" in2="BackgroundImageFix" result="shape"/>
<feGaussianBlur stdDeviation="4.5" result="effect1_foregroundBlur_201_331"/>
</filter>
<filter id="filter5_f_201_331" x="201.474" y="21.4843" width="188" height="367.978" filterUnits="userSpaceOnUse" color-interpolation-filters="sRGB">
<feFlood flood-opacity="0" result="BackgroundImageFix"/>
<feBlend mode="normal" in="SourceGraphic" in2="BackgroundImageFix" result="shape"/>
<feGaussianBlur stdDeviation="2" result="effect1_foregroundBlur_201_331"/>
</filter>
<filter id="filter6_f_201_331" x="180.474" y="0.484253" width="230" height="409.978" filterUnits="userSpaceOnUse" color-interpolation-filters="sRGB">
<feFlood flood-opacity="0" result="BackgroundImageFix"/>
<feBlend mode="normal" in="SourceGraphic" in2="BackgroundImageFix" result="shape"/>
<feGaussianBlur stdDeviation="12.5" result="effect1_foregroundBlur_201_331"/>
</filter>
<filter id="filter7_f_201_331" x="203.474" y="23.4843" width="184" height="363.978" filterUnits="userSpaceOnUse" color-interpolation-filters="sRGB">
<feFlood flood-opacity="0" result="BackgroundImageFix"/>
<feBlend mode="normal" in="SourceGraphic" in2="BackgroundImageFix" result="shape"/>
<feGaussianBlur stdDeviation="1" result="effect1_foregroundBlur_201_331"/>
</filter>
<radialGradient id="paint0_angular_201_331" cx="0" cy="0" r="1" gradientUnits="userSpaceOnUse" gradientTransform="translate(205 205) rotate(83.9505) scale(185.03 188.168)">
<stop stop-color="#F9A8D4"/>
<stop offset="0.291667" stop-color="white" stop-opacity="0"/>
<stop offset="1" stop-color="white" stop-opacity="0"/>
</radialGradient>
<radialGradient id="paint1_angular_201_331" cx="0" cy="0" r="1" gradientUnits="userSpaceOnUse" gradientTransform="translate(205 205) rotate(85.6129) scale(189.555 191.145)">
<stop stop-color="#EC4899"/>
<stop offset="0.296875" stop-color="#FBCFE8" stop-opacity="0"/>
<stop offset="1" stop-color="#C4C4C4" stop-opacity="0"/>
</radialGradient>
<radialGradient id="paint2_angular_201_331" cx="0" cy="0" r="1" gradientUnits="userSpaceOnUse" gradientTransform="translate(205 205) rotate(83.4064) scale(187.238)">
<stop stop-color="#EC4899"/>
<stop offset="0.40625" stop-color="#DB2777" stop-opacity="0"/>
<stop offset="1" stop-color="#C4C4C4" stop-opacity="0"/>
</radialGradient>
<radialGradient id="paint3_angular_201_331" cx="0" cy="0" r="1" gradientUnits="userSpaceOnUse" gradientTransform="translate(207 205) rotate(87.6595) scale(183.653 187.835)">
<stop stop-color="white"/>
<stop offset="0.0989583" stop-color="white" stop-opacity="0"/>
<stop offset="1" stop-color="#C4C4C4" stop-opacity="0"/>
</radialGradient>
<radialGradient id="paint4_angular_201_331" cx="0" cy="0" r="1" gradientUnits="userSpaceOnUse" gradientTransform="translate(205.474 205.473) rotate(-96.0495) scale(185.03 188.168)">
<stop stop-color="#BFDBFE"/>
<stop offset="0.291667" stop-color="white" stop-opacity="0"/>
<stop offset="1" stop-color="white" stop-opacity="0"/>
</radialGradient>
<radialGradient id="paint5_angular_201_331" cx="0" cy="0" r="1" gradientUnits="userSpaceOnUse" gradientTransform="translate(205.474 205.473) rotate(-94.3871) scale(189.555 191.145)">
<stop stop-color="#3B82F6"/>
<stop offset="0.296875" stop-color="#BFDBFE" stop-opacity="0"/>
<stop offset="1" stop-color="#C4C4C4" stop-opacity="0"/>
</radialGradient>
<radialGradient id="paint6_angular_201_331" cx="0" cy="0" r="1" gradientUnits="userSpaceOnUse" gradientTransform="translate(205.474 205.473) rotate(-96.5936) scale(187.238)">
<stop stop-color="#2563EB"/>
<stop offset="0.40625" stop-color="#1D4ED8" stop-opacity="0"/>
<stop offset="1" stop-color="#C4C4C4" stop-opacity="0"/>
</radialGradient>
<radialGradient id="paint7_angular_201_331" cx="0" cy="0" r="1" gradientUnits="userSpaceOnUse" gradientTransform="translate(203.474 205.473) rotate(-92.3405) scale(183.653 187.835)">
<stop stop-color="white"/>
<stop offset="0.0989583" stop-color="white" stop-opacity="0"/>
<stop offset="1" stop-color="#C4C4C4" stop-opacity="0"/>
</radialGradient>
</defs>
</svg>
