<svg width="48" height="142" viewBox="0 0 48 142" fill="none" xmlns="http://www.w3.org/2000/svg">
<path d="M23.4455 139.835V78.7076M23.4455 34.1149V48.1441M23.4455 48.1441L3.04634 34.1149M23.4455 48.1441V63.1753M23.4455 63.1753L45.8347 46.1399M23.4455 63.1753V78.7076M23.4455 78.7076L1.55373 63.1753M23.4455 26.0982V20.5868" stroke="#1F2937" stroke-width="3" stroke-linecap="round"/>
<path d="M1.5 51.6612C1.5 65.7631 4.10316 78.4574 8.24836 87.57C12.455 96.8176 17.96 101.822 23.5 101.822C29.04 101.822 34.545 96.8176 38.7516 87.57C42.8968 78.4574 45.5 65.7631 45.5 51.6612C45.5 37.5592 42.8968 24.8649 38.7516 15.7523C34.545 6.50469 29.04 1.5 23.5 1.5C17.96 1.5 12.455 6.50469 8.24836 15.7523C4.10316 24.8649 1.5 37.5592 1.5 51.6612Z" stroke="#1F2937" stroke-width="3"/>
</svg>
