<svg width="48" height="142" viewBox="0 0 48 142" fill="none" xmlns="http://www.w3.org/2000/svg">
<path d="M24.5545 139.835V78.7076M24.5545 34.1149V48.1441M24.5545 48.1441L44.9537 34.1149M24.5545 48.1441V63.1753M24.5545 63.1753L2.16528 46.1399M24.5545 63.1753V78.7076M24.5545 78.7076L46.4463 63.1753M24.5545 26.0982V20.5868" stroke="#1F2937" stroke-width="3" stroke-linecap="round"/>
<path d="M46.5 51.6612C46.5 65.7631 43.8968 78.4574 39.7516 87.57C35.545 96.8176 30.04 101.822 24.5 101.822C18.96 101.822 13.455 96.8176 9.24836 87.57C5.10316 78.4574 2.5 65.7631 2.5 51.6612C2.5 37.5592 5.10316 24.8649 9.24836 15.7523C13.455 6.50469 18.96 1.5 24.5 1.5C30.04 1.5 35.545 6.50469 39.7516 15.7523C43.8968 24.8649 46.5 37.5592 46.5 51.6612Z" stroke="#1F2937" stroke-width="3"/>
</svg>
